<?xml version="1.0" encoding="UTF-8" standalone="no"?>
<svg
   xmlns:dc="http://purl.org/dc/elements/1.1/"
   xmlns:cc="http://creativecommons.org/ns#"
   xmlns:rdf="http://www.w3.org/1999/02/22-rdf-syntax-ns#"
   xmlns:svg="http://www.w3.org/2000/svg"
   xmlns="http://www.w3.org/2000/svg"
   viewBox="0 0 680.84534 76.12133"
   height="76.12133"
   width="680.84534"
   xml:space="preserve"
   id="svg2"
   version="1.1"><metadata
     id="metadata8"><rdf:RDF><cc:Work
         rdf:about=""><dc:format>image/svg+xml</dc:format><dc:type
           rdf:resource="http://purl.org/dc/dcmitype/StillImage" /><dc:title></dc:title></cc:Work></rdf:RDF></metadata><defs
     id="defs6" /><g
     transform="matrix(1.3333333,0,0,-1.3333333,0,76.121333)"
     id="g10"><g
       transform="translate(0.199,0.199)"
       id="g12"><g
         id="g14"><g
           id="g16" /><g
           id="g18"><g
             id="g20"><path
               id="path22"
               style="fill:#ffffff;fill-opacity:1;fill-rule:nonzero;stroke:#000000;stroke-width:0.3985;stroke-linecap:butt;stroke-linejoin:miter;stroke-miterlimit:10;stroke-dasharray:none;stroke-opacity:1"
               d="M 0,0 H 85.04042 L 113.38724,28.3468 85.04042,56.69362 H 0 L 28.3468,28.3468 Z" /><g
               id="g24"><g
                 transform="translate(28.347,31.834)"
                 id="g26"><g
                   transform="translate(11.695)"
                   id="g28"><g
                     transform="translate(-40.241,-32.033)"
                     id="g30"><text
                       id="text36"
                       style="font-variant:normal;font-weight:normal;font-size:9.96259975px;font-family:CMSS10;-inkscape-font-specification:CMSS10;writing-mode:lr-tb;fill:#000000;fill-opacity:1;fill-rule:nonzero;stroke:none"
                       transform="matrix(1,0,0,-1,40.241,32.033)"><tspan
                         id="tspan32"
                         y="0"
                         x="0 6.8492875 11.996963 17.144638 21.572018 24.976238 28.794903 32.392399 37.180424 42.328098">Understand</tspan><tspan
                         id="tspan34"
                         y="11.956"
                         x="8.7939997 14.329221 18.922976 22.74164 26.339134 30.766514">System</tspan></text>
<g
                       transform="translate(28.546,32.033)"
                       id="g38" /></g></g><g
                   transform="translate(-28.347,-31.834)"
                   id="g40" /></g></g></g><g
             id="g42"><path
               id="path44"
               style="fill:#ffffff;fill-opacity:1;fill-rule:nonzero;stroke:#000000;stroke-width:0.3985;stroke-linecap:butt;stroke-linejoin:miter;stroke-miterlimit:10;stroke-dasharray:none;stroke-opacity:1"
               d="m 99.21382,0 h 85.04042 l 28.34682,28.3468 -28.34682,28.34682 H 99.21382 l 28.3468,-28.34682 z" /><g
               id="g46"><g
                 transform="translate(127.559,31.834)"
                 id="g48"><g
                   transform="translate(1.588)"
                   id="g50"><g
                     transform="translate(-129.346,-32.033)"
                     id="g52"><text
                       id="text58"
                       style="font-variant:normal;font-weight:normal;font-size:9.96259975px;font-family:CMSS10;-inkscape-font-specification:CMSS10;writing-mode:lr-tb;fill:#000000;fill-opacity:1;fill-rule:nonzero;stroke:none"
                       transform="matrix(1,0,0,-1,129.346,32.033)"><tspan
                         id="tspan54"
                         y="0"
                         x="0 7.1949897 11.622369 16.96332 22.110994 29.855919 36.497986 41.64566 46.433685 51.58136 55.178856 57.558922 62.540222">DefneAdaption</tspan><tspan
                         id="tspan56"
                         y="11.956"
                         x="5.7080002 12.141847 16.569227 21.716902 26.864578 29.244642 32.648865 37.076241 44.990532 49.417912 54.565586 58.163082">Requirements</tspan></text>
<g
                       transform="translate(127.758,32.033)"
                       id="g60" /></g></g><g
                   transform="translate(-127.559,-31.834)"
                   id="g62" /></g></g></g><g
             id="g64"><path
               id="path66"
               style="fill:#ffffff;fill-opacity:1;fill-rule:nonzero;stroke:#000000;stroke-width:0.3985;stroke-linecap:butt;stroke-linejoin:miter;stroke-miterlimit:10;stroke-dasharray:none;stroke-opacity:1"
               d="m 198.42766,0 h 85.04044 l 28.3468,28.3468 -28.3468,28.34682 H 198.42766 L 226.77448,28.3468 Z" /><g
               id="g68"><g
                 transform="translate(226.772,31.834)"
                 id="g70"><g
                   transform="translate(18.856)"
                   id="g72"><g
                     transform="translate(-245.827,-32.033)"
                     id="g74"><text
                       id="text80"
                       style="font-variant:normal;font-weight:normal;font-size:9.96259975px;font-family:CMSS10;-inkscape-font-specification:CMSS10;writing-mode:lr-tb;fill:#000000;fill-opacity:1;fill-rule:nonzero;stroke:none"
                       transform="matrix(1,0,0,-1,245.827,32.033)"><tspan
                         id="tspan76"
                         y="0"
                         x="0 7.1949897 11.622369 16.216124 20.643503 23.023569 28.004869">Develop</tspan><tspan
                         id="tspan78"
                         y="11.956"
                         x="-17.974001 -11.331935 -6.1842589 -1.3962336 3.7514417 7.3489366 9.729002 14.710301 23.175524 30.370512 34.797894 38.616558 40.99662 45.977921">AdaptionDesign</tspan></text>
<g
                       transform="translate(226.971,32.033)"
                       id="g82" /></g></g><g
                   transform="translate(-226.772,-31.834)"
                   id="g84" /></g></g></g><g
             id="g86"><path
               id="path88"
               style="fill:#ffffff;fill-opacity:1;fill-rule:nonzero;stroke:#000000;stroke-width:0.3985;stroke-linecap:butt;stroke-linejoin:miter;stroke-miterlimit:10;stroke-dasharray:none;stroke-opacity:1"
               d="m 297.6415,0 h 85.04042 l 28.34681,28.3468 -28.34681,28.34682 H 297.6415 L 325.9883,28.3468 Z" /><g
               id="g90"><g
                 transform="translate(325.984,31.834)"
                 id="g92"><g
                   transform="translate(5.836)"
                   id="g94"><g
                     transform="translate(-332.019,-32.033)"
                     id="g96"><text
                       id="text102"
                       style="font-variant:normal;font-weight:normal;font-size:9.96259975px;font-family:CMSS10;-inkscape-font-specification:CMSS10;writing-mode:lr-tb;fill:#000000;fill-opacity:1;fill-rule:nonzero;stroke:none"
                       transform="matrix(1,0,0,-1,332.019,32.033)"><tspan
                         id="tspan98"
                         y="0"
                         x="0 6.3651052 11.625358 16.773033 24.517958 30.883064 36.030739 40.818764 45.966438 50.947739 55.375118">CodeChanges</tspan><tspan
                         id="tspan100"
                         y="11.956"
                         x="1.965 12.837185 20.032175 24.459555 29.607229 34.754906 39.736206 44.717506 47.097572 52.245247">&amp;Debugging</tspan></text>
<g
                       transform="translate(326.183,32.033)"
                       id="g104" /></g></g><g
                   transform="translate(-325.984,-31.834)"
                   id="g106" /></g></g></g><g
             id="g108"><path
               id="path110"
               style="fill:#ffffff;fill-opacity:1;fill-rule:nonzero;stroke:#000000;stroke-width:0.3985;stroke-linecap:butt;stroke-linejoin:miter;stroke-miterlimit:10;stroke-dasharray:none;stroke-opacity:1"
               d="m 396.85533,0 h 85.04044 l 28.3468,28.3468 -28.3468,28.34682 h -85.04044 l 28.3468,-28.34682 z" /><g
               id="g112"><g
                 transform="translate(425.197,25.856)"
                 id="g114"><g
                   transform="translate(1.055)"
                   id="g116"><g
                     transform="translate(-426.451,-26.055)"
                     id="g118"><text
                       id="text122"
                       style="font-variant:normal;font-weight:normal;font-size:9.96259975px;font-family:CMSS10;-inkscape-font-specification:CMSS10;writing-mode:lr-tb;fill:#000000;fill-opacity:1;fill-rule:nonzero;stroke:none"
                       transform="matrix(1,0,0,-1,426.451,26.055)"><tspan
                         id="tspan120"
                         y="0"
                         x="0 6.433847 10.861226 15.842526 19.246746 23.674126 27.49279 31.311455 33.691521 38.672821 47.138042 53.09169 57.51907 61.337734 64.935234">RegressionTests</tspan></text>
<g
                       transform="translate(425.396,26.055)"
                       id="g124" /></g></g><g
                   transform="translate(-425.197,-25.856)"
                   id="g126" /></g></g></g></g></g></g></g></svg>