<?xml version="1.0" encoding="UTF-8" standalone="no"?>
<svg
   xmlns:dc="http://purl.org/dc/elements/1.1/"
   xmlns:cc="http://creativecommons.org/ns#"
   xmlns:rdf="http://www.w3.org/1999/02/22-rdf-syntax-ns#"
   xmlns:svg="http://www.w3.org/2000/svg"
   xmlns="http://www.w3.org/2000/svg"
   viewBox="0 0 583.82269 539.82001"
   height="539.82001"
   width="583.82269"
   xml:space="preserve"
   id="svg2"
   version="1.1"><metadata
     id="metadata8"><rdf:RDF><cc:Work
         rdf:about=""><dc:format>image/svg+xml</dc:format><dc:type
           rdf:resource="http://purl.org/dc/dcmitype/StillImage" /><dc:title></dc:title></cc:Work></rdf:RDF></metadata><defs
     id="defs6" /><g
     transform="matrix(1.3333333,0,0,-1.3333333,0,539.82)"
     id="g10"><g
       transform="translate(224.219,390.94)"
       id="g12"><g
         id="g14"><g
           id="g16"><g
             id="g18"><path
               id="path20"
               style="fill:none;stroke:#000000;stroke-width:0.3985;stroke-linecap:butt;stroke-linejoin:miter;stroke-miterlimit:10;stroke-dasharray:none;stroke-opacity:1"
               d="m -43.17169,-13.72612 h 86.3434 v 27.45224 h -86.3434 z" /><g
               transform="translate(-39.851,3.486)"
               id="g22"><g
                 transform="translate(24.298)"
                 id="g24"><g
                   transform="translate(-208.666,-394.426)"
                   id="g26"><text
                     id="text32"
                     style="font-variant:normal;font-weight:normal;font-size:9.96259975px;font-family:CMSS10;-inkscape-font-specification:CMSS10;writing-mode:lr-tb;fill:#000000;fill-opacity:1;fill-rule:nonzero;stroke:none"
                     transform="matrix(1,0,0,-1,208.666,394.426)"><tspan
                       id="tspan28"
                       y="0"
                       x="0 2.7676103 7.9152856 12.342665 17.490341 21.087835 23.467901 26.51247">Identify</tspan><tspan
                       id="tspan30"
                       y="11.955"
                       x="-8.4399996 -2.0748949 2.9064052 10.820695 16.247322 21.228622 26.376299 30.803679 35.951355">Component</tspan></text>
<g
                     transform="translate(184.368,394.426)"
                     id="g34" /></g></g><g
                 transform="translate(39.851,-3.486)"
                 id="g36" /></g></g><g
             id="g38"><path
               id="path40"
               style="fill:none;stroke:#000000;stroke-width:0.3985;stroke-linecap:butt;stroke-linejoin:miter;stroke-miterlimit:10;stroke-dasharray:none;stroke-opacity:1"
               d="m -43.17169,-53.81305 h 86.3434 v 25.51503 h -86.3434 z" /><g
               transform="translate(-39.851,-38.537)"
               id="g42"><g
                 transform="translate(11.983)"
                 id="g44"><g
                   transform="translate(-196.351,-352.403)"
                   id="g46"><text
                     id="text52"
                     style="font-variant:normal;font-weight:normal;font-size:9.96259975px;font-family:CMSS10;-inkscape-font-specification:CMSS10;writing-mode:lr-tb;fill:#000000;fill-opacity:1;fill-rule:nonzero;stroke:none"
                     transform="matrix(1,0,0,-1,196.351,352.403)"><tspan
                       id="tspan48"
                       y="0"
                       x="0 6.3651052 9.7693253 14.196705 18.98473 22.582226 30.32715 34.754532 42.668819 47.816494 51.145">Createempty</tspan><tspan
                       id="tspan50"
                       y="11.955"
                       x="12.73 20.644289 25.904543 31.052217 36.199894 38.57996">module</tspan></text>
<g
                     transform="translate(184.368,352.403)"
                     id="g54" /></g></g><g
                 transform="translate(39.851,38.537)"
                 id="g56" /></g></g><g
             id="g58"><path
               id="path60"
               style="fill:none;stroke:#000000;stroke-width:0.3985;stroke-linecap:butt;stroke-linejoin:miter;stroke-miterlimit:10;stroke-dasharray:none;stroke-opacity:1"
               d="M 0,-13.92537 V -27.10251" /><g
               transform="rotate(-90,-13.551255,-13.551255)"
               id="g62"><g
                 id="g64"><path
                   id="path66"
                   style="fill:#000000;fill-opacity:1;fill-rule:nonzero;stroke:#000000;stroke-width:0.3985;stroke-linecap:butt;stroke-linejoin:round;stroke-miterlimit:10;stroke-dasharray:none;stroke-opacity:1"
                   d="m 0.797,0 c -0.99625,0.19925 -1.99251,0.59775 -3.18802,1.29512 1.19551,-0.89662 1.19551,-1.69362 0,-2.59024 C -1.19551,-0.59775 -0.19925,-0.19925 0.797,0 Z" /></g></g></g><g
             id="g68"><path
               id="path70"
               style="fill:none;stroke:#000000;stroke-width:0.3985;stroke-linecap:butt;stroke-linejoin:miter;stroke-miterlimit:10;stroke-dasharray:none;stroke-opacity:1"
               d="m -43.17169,-105.8553 h 86.3434 v 37.47035 h -86.3434 z" /><g
               transform="translate(-39.851,-78.624)"
               id="g72"><g
                 transform="translate(8.856)"
                 id="g74"><g
                   transform="translate(-193.224,-312.316)"
                   id="g76"><text
                     id="text84"
                     style="font-variant:normal;font-weight:normal;font-size:9.96259975px;font-family:CMSS10;-inkscape-font-specification:CMSS10;writing-mode:lr-tb;fill:#000000;fill-opacity:1;fill-rule:nonzero;stroke:none"
                     transform="matrix(1,0,0,-1,193.224,312.316)"><tspan
                       id="tspan78"
                       y="0"
                       x="0 7.1949897 11.622369 16.049749 18.429813 22.938887 26.343107 34.097996 39.24567 43.67305 49.089714 53.517094 58.664768">Declaredepen-</tspan><tspan
                       id="tspan80"
                       y="11.955"
                       x="2.7820001 7.9296756 12.357055 17.50473 21.93211 24.312176 28.739553 35.875763 41.023441 45.811466 49.630131 54.05751">denciesbased</tspan><tspan
                       id="tspan82"
                       y="23.91"
                       x="-0.18000001 4.8013 13.266521 17.775595 21.179815 25.617157 30.754869 33.134933 36.73243 41.169773 45.597149 49.194645 54.342319 57.74654">onarchitecture</tspan></text>
<g
                     transform="translate(184.368,312.316)"
                     id="g86" /></g></g><g
                 transform="translate(39.851,78.624)"
                 id="g88" /></g></g><g
             id="g90"><path
               id="path92"
               style="fill:none;stroke:#000000;stroke-width:0.3985;stroke-linecap:butt;stroke-linejoin:miter;stroke-miterlimit:10;stroke-dasharray:none;stroke-opacity:1"
               d="M 0,-54.0123 V -67.18944" /><g
               transform="rotate(-90,-33.59472,-33.59472)"
               id="g94"><g
                 id="g96"><path
                   id="path98"
                   style="fill:#000000;fill-opacity:1;fill-rule:nonzero;stroke:#000000;stroke-width:0.3985;stroke-linecap:butt;stroke-linejoin:round;stroke-miterlimit:10;stroke-dasharray:none;stroke-opacity:1"
                   d="m 0.797,0 c -0.99625,0.19925 -1.99251,0.59775 -3.18802,1.29512 1.19551,-0.89662 1.19551,-1.69362 0,-2.59024 C -1.19551,-0.59775 -0.19925,-0.19925 0.797,0 Z" /></g></g></g><g
             id="g100"><path
               id="path102"
               style="fill:none;stroke:#000000;stroke-width:0.3985;stroke-linecap:butt;stroke-linejoin:miter;stroke-miterlimit:10;stroke-dasharray:none;stroke-opacity:1"
               d="m -43.17169,-169.85289 h 86.3434 v 49.42567 h -86.3434 z" /><g
               transform="translate(-39.851,-130.665)"
               id="g104"><g
                 transform="translate(18.21)"
                 id="g106"><g
                   transform="translate(-202.578,-260.275)"
                   id="g108"><text
                     id="text118"
                     style="font-variant:normal;font-weight:normal;font-size:9.96259975px;font-family:CMSS10;-inkscape-font-specification:CMSS10;writing-mode:lr-tb;fill:#000000;fill-opacity:1;fill-rule:nonzero;stroke:none"
                     transform="matrix(1,0,0,-1,202.578,260.275)"><tspan
                       id="tspan110"
                       y="0"
                       x="0 8.7172747 13.698575 18.29233 26.037254 29.441475 34.701729 39.683029">Moveroot</tspan><tspan
                       id="tspan112"
                       y="11.955"
                       x="-0.60900003 4.5386753 9.3267012 13.754081 18.345842 23.133869 28.115168 35.870056 40.851357">packageof</tspan><tspan
                       id="tspan114"
                       y="23.91"
                       x="-7.3340001 -2.9066205 2.0746794 9.9889688 15.415597 20.396896 25.544573 29.971952 35.119629 42.034668 45.632164">componentto</tspan><tspan
                       id="tspan116"
                       y="35.866001"
                       x="-3.349 1.7986754 6.2260547 16.351046 24.265335 29.525587 34.673264 39.820938 42.201004">newmodule</tspan></text>
<g
                     transform="translate(184.368,260.275)"
                     id="g120" /></g></g><g
                 transform="translate(39.851,130.665)"
                 id="g122" /></g></g><g
             id="g124"><path
               id="path126"
               style="fill:none;stroke:#000000;stroke-width:0.3985;stroke-linecap:butt;stroke-linejoin:miter;stroke-miterlimit:10;stroke-dasharray:none;stroke-opacity:1"
               d="m 0,-106.05455 v -13.17714" /><g
               transform="rotate(-90,-59.615845,-59.615845)"
               id="g128"><g
                 id="g130"><path
                   id="path132"
                   style="fill:#000000;fill-opacity:1;fill-rule:nonzero;stroke:#000000;stroke-width:0.3985;stroke-linecap:butt;stroke-linejoin:round;stroke-miterlimit:10;stroke-dasharray:none;stroke-opacity:1"
                   d="m 0.797,0 c -0.99625,0.19925 -1.99251,0.59775 -3.18802,1.29512 1.19551,-0.89662 1.19551,-1.69362 0,-2.59024 C -1.19551,-0.59775 -0.19925,-0.19925 0.797,0 Z" /></g></g></g><g
             id="g134"><path
               id="path136"
               style="fill:none;stroke:#000000;stroke-width:0.3985;stroke-linecap:butt;stroke-linejoin:miter;stroke-miterlimit:10;stroke-dasharray:none;stroke-opacity:1"
               d="M 53.66002,-211.29607 0,-184.50731 -53.66002,-211.29607 0,-238.08481 Z" /><g
               transform="translate(-24.907,-208.775)"
               id="g138"><g
                 transform="translate(3.806)"
                 id="g140"><g
                   transform="translate(-203.118,-182.165)"
                   id="g142"><text
                     id="text148"
                     style="font-variant:normal;font-weight:normal;font-size:9.96259975px;font-family:CMSS10;-inkscape-font-specification:CMSS10;writing-mode:lr-tb;fill:#000000;fill-opacity:1;fill-rule:nonzero;stroke:none"
                     transform="matrix(1,0,0,-1,203.118,182.165)"><tspan
                       id="tspan144"
                       y="0"
                       x="0 6.6420655 9.022131 14.719742 19.147121 21.527185 26.315212 30.133877 33.952541 38.379921">Allclasses</tspan><tspan
                       id="tspan146"
                       y="11.956"
                       x="7.0149999 10.05957 15.040871 20.188545 25.336222 30.483896">found?</tspan></text>
<g
                     transform="translate(199.312,182.165)"
                     id="g150" /></g></g><g
                 transform="translate(24.907,208.775)"
                 id="g152" /></g></g><g
             id="g154"><path
               id="path156"
               style="fill:none;stroke:#000000;stroke-width:0.3985;stroke-linecap:butt;stroke-linejoin:miter;stroke-miterlimit:10;stroke-dasharray:none;stroke-opacity:1"
               d="m 0,-170.05214 v -13.17653" /><g
               transform="rotate(-90,-91.614335,-91.614335)"
               id="g158"><g
                 id="g160"><path
                   id="path162"
                   style="fill:#000000;fill-opacity:1;fill-rule:nonzero;stroke:#000000;stroke-width:0.3985;stroke-linecap:butt;stroke-linejoin:round;stroke-miterlimit:10;stroke-dasharray:none;stroke-opacity:1"
                   d="m 0.797,0 c -0.99625,0.19925 -1.99251,0.59775 -3.18802,1.29512 1.19551,-0.89662 1.19551,-1.69362 0,-2.59024 C -1.19551,-0.59775 -0.19925,-0.19925 0.797,0 Z" /></g></g></g><g
             id="g164"><path
               id="path166"
               style="fill:none;stroke:#000000;stroke-width:0.3985;stroke-linecap:butt;stroke-linejoin:miter;stroke-miterlimit:10;stroke-dasharray:none;stroke-opacity:1"
               d="m 126.90921,-225.02219 h 86.3434 v 27.45224 h -86.3434 z" /><g
               transform="translate(130.228,-207.807)"
               id="g168"><g
                 transform="translate(16.632)"
                 id="g170"><g
                   transform="translate(-371.079,-183.133)"
                   id="g172"><text
                     id="text178"
                     style="font-variant:normal;font-weight:normal;font-size:9.96259975px;font-family:CMSS10;-inkscape-font-specification:CMSS10;writing-mode:lr-tb;fill:#000000;fill-opacity:1;fill-rule:nonzero;stroke:none"
                     transform="matrix(1,0,0,-1,371.079,183.133)"><tspan
                       id="tspan174"
                       y="0"
                       x="0 7.1949897 11.622369 16.049749 18.429813 22.938887 26.343107 34.097996 38.525375 43.119129">Declareex-</tspan><tspan
                       id="tspan176"
                       y="11.955"
                       x="-10.281 -4.8543715 -0.15202458 3.2521958 6.8496909 11.27707 19.74229 24.889967 29.677992 34.105373 38.697136 43.485161 48.466461 52.903801">portedpackages</tspan></text>
<g
                     transform="translate(354.447,183.133)"
                     id="g180" /></g></g><g
                 transform="translate(-130.228,207.807)"
                 id="g182" /></g></g><g
             id="g184"><g
               id="g186"><path
                 id="path188"
                 style="fill:#f9f9f9;fill-opacity:1;fill-rule:nonzero;stroke:#000000;stroke-width:0.79701;stroke-linecap:butt;stroke-linejoin:miter;stroke-miterlimit:10;stroke-dasharray:none;stroke-opacity:1"
                 d="m 126.90921,-256.95139 h 86.3434 v 17.15804 h -86.3434 z" /></g><g
               transform="translate(130.228,-251.829)"
               id="g190"><g
                 transform="translate(3.446)"
                 id="g192"><g
                   transform="translate(-357.893,-139.111)"
                   id="g194"><text
                     id="text198"
                     style="font-variant:normal;font-weight:normal;font-size:9.96259975px;font-family:CMSS10;-inkscape-font-specification:CMSS10;writing-mode:lr-tb;fill:#000000;fill-opacity:1;fill-rule:nonzero;stroke:none"
                     transform="matrix(1,0,0,-1,357.893,139.111)"><tspan
                       id="tspan196"
                       y="0"
                       x="0 8.7172747 13.977528 19.125204 24.272879 26.652945 34.397869 38.825249 43.419003 47.016499 50.420719 55.208744 59.636124 63.23362 67.660995">Moduleextracted</tspan></text>
<g
                     transform="translate(354.447,139.111)"
                     id="g200" /></g></g><g
                 transform="translate(-130.228,251.829)"
                 id="g202" /></g></g><g
             id="g204"><path
               id="path206"
               style="fill:none;stroke:#000000;stroke-width:0.3985;stroke-linecap:butt;stroke-linejoin:miter;stroke-miterlimit:10;stroke-dasharray:none;stroke-opacity:1"
               d="m 170.08092,-225.22144 v -13.17713" /><g
               transform="rotate(-90,-34.158825,-204.23975)"
               id="g208"><g
                 id="g210"><path
                   id="path212"
                   style="fill:#000000;fill-opacity:1;fill-rule:nonzero;stroke:#000000;stroke-width:0.3985;stroke-linecap:butt;stroke-linejoin:round;stroke-miterlimit:10;stroke-dasharray:none;stroke-opacity:1"
                   d="m 0.797,0 c -0.99625,0.19925 -1.99251,0.59775 -3.18802,1.29512 1.19551,-0.89662 1.19551,-1.69362 0,-2.59024 C -1.19551,-0.59775 -0.19925,-0.19925 0.797,0 Z" /></g></g></g><g
             id="g214"><path
               id="path216"
               style="fill:none;stroke:#000000;stroke-width:0.3985;stroke-linecap:butt;stroke-linejoin:miter;stroke-miterlimit:10;stroke-dasharray:none;stroke-opacity:1"
               d="M 67.55252,-300.73018 0,-266.99518 -67.55252,-300.73018 0,-334.46518 Z" /><g
               transform="translate(-24.907,-291.262)"
               id="g218"><g
                 transform="translate(3.363)"
                 id="g220"><g
                   transform="translate(-202.675,-99.678)"
                   id="g222"><text
                     id="text230"
                     style="font-variant:normal;font-weight:normal;font-size:9.96259975px;font-family:CMSS10;-inkscape-font-specification:CMSS10;writing-mode:lr-tb;fill:#000000;fill-opacity:1;fill-rule:nonzero;stroke:none"
                     transform="matrix(1,0,0,-1,202.675,99.678)"><tspan
                       id="tspan224"
                       y="0"
                       x="0 2.7676103 7.9152856 11.51278 15.94016 19.344381 24.492056 29.280081 34.977692 39.680038">Internalor</tspan><tspan
                       id="tspan226"
                       y="11.955"
                       x="4.4000001 10.349665 14.943419 18.540915 22.968294 26.372515 31.520189 36.308216">External</tspan><tspan
                       id="tspan228"
                       y="23.910999"
                       x="-0.94099998 2.6564949 10.95534 15.834026 19.228283 24.209583 26.86661 31.293989 35.731331 39.328827">toproject?</tspan></text>
<g
                     transform="translate(199.312,99.678)"
                     id="g232" /></g></g><g
                 transform="translate(24.907,291.262)"
                 id="g234" /></g></g><g
             id="g236"><path
               id="path238"
               style="fill:none;stroke:#000000;stroke-width:0.3985;stroke-linecap:butt;stroke-linejoin:miter;stroke-miterlimit:10;stroke-dasharray:none;stroke-opacity:1"
               d="m -213.25261,-314.4563 h 86.3434 v 27.45224 h -86.3434 z" /><g
               transform="translate(-209.929,-297.24)"
               id="g240"><g
                 transform="translate(13.339)"
                 id="g242"><g
                   transform="translate(-27.629,-93.7)"
                   id="g244"><text
                     id="text250"
                     style="font-variant:normal;font-weight:normal;font-size:9.96259975px;font-family:CMSS10;-inkscape-font-specification:CMSS10;writing-mode:lr-tb;fill:#000000;fill-opacity:1;fill-rule:nonzero;stroke:none"
                     transform="matrix(1,0,0,-1,27.629,93.7)"><tspan
                       id="tspan246"
                       y="0"
                       x="0 6.6420655 11.789741 20.254963 24.682341 29.276096 32.873592 37.300972 40.705193 45.852867 50.640892">Addexternal</tspan><tspan
                       id="tspan248"
                       y="11.955"
                       x="2.352 7.4996753 11.927054 17.353683 21.781063 26.928738 32.076412 36.503792 41.651466 46.078846">dependency</tspan></text>
<g
                     transform="translate(14.29,93.7)"
                     id="g252" /></g></g><g
                 transform="translate(209.929,297.24)"
                 id="g254" /></g></g><g
             id="g256"><path
               id="path258"
               style="fill:none;stroke:#000000;stroke-width:0.3985;stroke-linecap:butt;stroke-linejoin:miter;stroke-miterlimit:10;stroke-dasharray:none;stroke-opacity:1"
               d="m -43.17169,-390.74527 h 86.3434 v 27.45224 h -86.3434 z" /><g
               transform="translate(-39.851,-373.528)"
               id="g260"><g
                 transform="translate(7.507)"
                 id="g262"><g
                   transform="translate(-191.875,-17.412)"
                   id="g264"><text
                     id="text270"
                     style="font-variant:normal;font-weight:normal;font-size:9.96259975px;font-family:CMSS10;-inkscape-font-specification:CMSS10;writing-mode:lr-tb;fill:#000000;fill-opacity:1;fill-rule:nonzero;stroke:none"
                     transform="matrix(1,0,0,-1,191.875,17.412)"><tspan
                       id="tspan266"
                       y="0"
                       x="0 6.433847 10.861226 14.679891 19.661192 22.041256 26.635012 34.379936 38.81728 43.79858 48.936291 54.287205 56.657307 61.094646">Resolveconfict</tspan><tspan
                       id="tspan268"
                       y="11.955"
                       x="3.7980001 8.6667223 16.587986 19.992207 24.419586 27.464157 32.242218 36.679562 40.277058 44.979404 48.383625 50.763687 55.911366">byrefactoring</tspan></text>
<g
                     transform="translate(184.368,17.412)"
                     id="g272" /></g></g><g
                 transform="translate(39.851,373.527)"
                 id="g274" /></g></g><path
             id="path276"
             style="fill:none;stroke:#000000;stroke-width:0.3985;stroke-linecap:butt;stroke-linejoin:miter;stroke-miterlimit:10;stroke-dasharray:none;stroke-opacity:1"
             d="M 53.94568,-211.29607 H 125.7137" /><g
             transform="translate(125.7137,-211.29607)"
             id="g278"><g
               id="g280"><path
                 id="path282"
                 style="fill:#000000;fill-opacity:1;fill-rule:nonzero;stroke:#000000;stroke-width:0.3985;stroke-linecap:butt;stroke-linejoin:round;stroke-miterlimit:10;stroke-dasharray:none;stroke-opacity:1"
                 d="m 0.797,0 c -0.99625,0.19925 -1.99251,0.59775 -3.18802,1.29512 1.19551,-0.89662 1.19551,-1.69362 0,-2.59024 C -1.19551,-0.59775 -0.19925,-0.19925 0.797,0 Z" /></g></g><g
             id="g284"><g
               transform="translate(65.854,-205.836)"
               id="g286"><g
                 id="g288"><g
                   transform="translate(-290.073,-185.103)"
                   id="g290"><text
                     id="text294"
                     style="font-variant:normal;font-weight:normal;font-size:9.96259975px;font-family:CMSS10;-inkscape-font-specification:CMSS10;writing-mode:lr-tb;fill:#000000;fill-opacity:1;fill-rule:nonzero;stroke:none"
                     transform="matrix(1,0,0,-1,290.073,185.103)"><tspan
                       id="tspan292"
                       y="0"
                       x="0 4.3148022 8.7421818">yes</tspan></text>
<g
                     transform="translate(290.073,185.103)"
                     id="g296" /></g></g><g
                 transform="translate(-65.854,205.836)"
                 id="g298" /></g></g><path
             id="path300"
             style="fill:none;stroke:#000000;stroke-width:0.3985;stroke-linecap:butt;stroke-linejoin:miter;stroke-miterlimit:10;stroke-dasharray:none;stroke-opacity:1"
             d="m 0,-238.36746 v -27.34996" /><g
             transform="rotate(-90,-132.85871,-132.85871)"
             id="g302"><g
               id="g304"><path
                 id="path306"
                 style="fill:#000000;fill-opacity:1;fill-rule:nonzero;stroke:#000000;stroke-width:0.3985;stroke-linecap:butt;stroke-linejoin:round;stroke-miterlimit:10;stroke-dasharray:none;stroke-opacity:1"
                 d="m 0.797,0 c -0.99625,0.19925 -1.99251,0.59775 -3.18802,1.29512 1.19551,-0.89662 1.19551,-1.69362 0,-2.59024 C -1.19551,-0.59775 -0.19925,-0.19925 0.797,0 Z" /></g></g><g
             id="g308"><g
               transform="translate(3.52,-247.664)"
               id="g310"><g
                 id="g312"><g
                   transform="translate(-227.739,-143.275)"
                   id="g314"><text
                     id="text318"
                     style="font-variant:normal;font-weight:normal;font-size:9.96259975px;font-family:CMSS10;-inkscape-font-specification:CMSS10;writing-mode:lr-tb;fill:#000000;fill-opacity:1;fill-rule:nonzero;stroke:none"
                     transform="matrix(1,0,0,-1,227.739,143.275)"><tspan
                       id="tspan316"
                       y="0"
                       x="0 5.1476755">no</tspan></text>
<g
                     transform="translate(227.739,143.275)"
                     id="g320" /></g></g><g
                 transform="translate(-3.52,247.664)"
                 id="g322" /></g></g><path
             id="path324"
             style="fill:none;stroke:#000000;stroke-width:0.3985;stroke-linecap:butt;stroke-linejoin:miter;stroke-miterlimit:10;stroke-dasharray:none;stroke-opacity:1"
             d="M -67.83968,-300.73018 H -125.7137" /><g
             transform="rotate(180,-62.85685,-150.36509)"
             id="g326"><g
               id="g328"><path
                 id="path330"
                 style="fill:#000000;fill-opacity:1;fill-rule:nonzero;stroke:#000000;stroke-width:0.3985;stroke-linecap:butt;stroke-linejoin:round;stroke-miterlimit:10;stroke-dasharray:none;stroke-opacity:1"
                 d="m 0.797,0 c -0.99625,0.19925 -1.99251,0.59775 -3.18802,1.29512 1.19551,-0.89662 1.19551,-1.69362 0,-2.59024 C -1.19551,-0.59775 -0.19925,-0.19925 0.797,0 Z" /></g></g><g
             id="g332"><g
               transform="translate(-98.939,-297.206)"
               id="g334"><g
                 id="g336"><g
                   transform="translate(-125.28,-93.733)"
                   id="g338"><text
                     id="text342"
                     style="font-variant:normal;font-weight:normal;font-size:9.96259975px;font-family:CMSS10;-inkscape-font-specification:CMSS10;writing-mode:lr-tb;fill:#000000;fill-opacity:1;fill-rule:nonzero;stroke:none"
                     transform="matrix(1,0,0,-1,125.28,93.733)"><tspan
                       id="tspan340"
                       y="0"
                       x="0 4.4273796 9.0211344 12.618629 17.046009 20.45023 25.597904 30.385929">external</tspan></text>
<g
                     transform="translate(125.28,93.733)"
                     id="g344" /></g></g><g
                 transform="translate(98.939,297.207)"
                 id="g346" /></g></g><path
             id="path348"
             style="fill:none;stroke:#000000;stroke-width:0.3985;stroke-linecap:butt;stroke-linejoin:miter;stroke-miterlimit:10;stroke-dasharray:none;stroke-opacity:1"
             d="m 0,-334.74808 v -27.34944" /><g
             transform="rotate(-90,-181.04876,-181.04876)"
             id="g350"><g
               id="g352"><path
                 id="path354"
                 style="fill:#000000;fill-opacity:1;fill-rule:nonzero;stroke:#000000;stroke-width:0.3985;stroke-linecap:butt;stroke-linejoin:round;stroke-miterlimit:10;stroke-dasharray:none;stroke-opacity:1"
                 d="m 0.797,0 c -0.99625,0.19925 -1.99251,0.59775 -3.18802,1.29512 1.19551,-0.89662 1.19551,-1.69362 0,-2.59024 C -1.19551,-0.59775 -0.19925,-0.19925 0.797,0 Z" /></g></g><g
             id="g356"><g
               transform="translate(3.52,-345.29)"
               id="g358"><g
                 id="g360"><g
                   transform="translate(-227.739,-45.65)"
                   id="g362"><text
                     id="text366"
                     style="font-variant:normal;font-weight:normal;font-size:9.96259975px;font-family:CMSS10;-inkscape-font-specification:CMSS10;writing-mode:lr-tb;fill:#000000;fill-opacity:1;fill-rule:nonzero;stroke:none"
                     transform="matrix(1,0,0,-1,227.739,45.65)"><tspan
                       id="tspan364"
                       y="0"
                       x="0 2.3800652 7.5277405 11.125236 15.552615 18.956835 24.104511 28.892536">internal</tspan></text>
<g
                     transform="translate(227.739,45.65)"
                     id="g368" /></g></g><g
                 transform="translate(-3.52,345.289)"
                 id="g370" /></g></g><path
             id="path372"
             style="fill:none;stroke:#000000;stroke-width:0.3985;stroke-linecap:butt;stroke-linejoin:miter;stroke-miterlimit:10;stroke-dasharray:none;stroke-opacity:1"
             d="m -170.08092,-286.80481 v 75.50874 h 115.13843" /><g
             transform="translate(-54.94249,-211.29607)"
             id="g374"><g
               id="g376"><path
                 id="path378"
                 style="fill:#000000;fill-opacity:1;fill-rule:nonzero;stroke:#000000;stroke-width:0.3985;stroke-linecap:butt;stroke-linejoin:round;stroke-miterlimit:10;stroke-dasharray:none;stroke-opacity:1"
                 d="m 0.797,0 c -0.99625,0.19925 -1.99251,0.59775 -3.18802,1.29512 1.19551,-0.89662 1.19551,-1.69362 0,-2.59024 C -1.19551,-0.59775 -0.19925,-0.19925 0.797,0 Z" /></g></g><g
             id="g380" /><path
             id="path382"
             style="fill:none;stroke:#000000;stroke-width:0.3985;stroke-linecap:butt;stroke-linejoin:miter;stroke-miterlimit:10;stroke-dasharray:none;stroke-opacity:1"
             d="m -43.37094,-377.01915 h -180.65178 v 165.72308 h 169.08078" /><g
             transform="translate(-54.94194,-211.29607)"
             id="g384"><g
               id="g386"><path
                 id="path388"
                 style="fill:#000000;fill-opacity:1;fill-rule:nonzero;stroke:#000000;stroke-width:0.3985;stroke-linecap:butt;stroke-linejoin:round;stroke-miterlimit:10;stroke-dasharray:none;stroke-opacity:1"
                 d="m 0.797,0 c -0.99625,0.19925 -1.99251,0.59775 -3.18802,1.29512 1.19551,-0.89662 1.19551,-1.69362 0,-2.59024 C -1.19551,-0.59775 -0.19925,-0.19925 0.797,0 Z" /></g></g></g><g
           id="g390" /></g></g></g></svg>