<?xml version="1.0" encoding="UTF-8" standalone="no"?>
<svg
   xmlns:dc="http://purl.org/dc/elements/1.1/"
   xmlns:cc="http://creativecommons.org/ns#"
   xmlns:rdf="http://www.w3.org/1999/02/22-rdf-syntax-ns#"
   xmlns:svg="http://www.w3.org/2000/svg"
   xmlns="http://www.w3.org/2000/svg"
   viewBox="0 0 788.36401 473.15201"
   height="473.15201"
   width="788.36401"
   xml:space="preserve"
   id="svg2"
   version="1.1"><metadata
     id="metadata8"><rdf:RDF><cc:Work
         rdf:about=""><dc:format>image/svg+xml</dc:format><dc:type
           rdf:resource="http://purl.org/dc/dcmitype/StillImage" /><dc:title></dc:title></cc:Work></rdf:RDF></metadata><defs
     id="defs6" /><g
     transform="matrix(1.3333333,0,0,-1.3333333,0,473.152)"
     id="g10"><g
       transform="translate(235.892,346.086)"
       id="g12"><g
         id="g14"><g
           id="g16"><g
             id="g18"><path
               id="path20"
               style="fill:none;stroke:#000000;stroke-width:0.3985;stroke-linecap:butt;stroke-linejoin:miter;stroke-miterlimit:10;stroke-dasharray:none;stroke-opacity:1"
               d="m -43.17169,-8.57901 h 86.3434 V 8.57903 h -86.3434 z" /><g
               transform="translate(-39.85,-2.49)"
               id="g22"><g
                 transform="translate(12.647)"
                 id="g24"><g
                   transform="translate(-208.689,-343.596)"
                   id="g26"><text
                     id="text30"
                     style="font-variant:normal;font-weight:normal;font-size:9.96259975px;font-family:CMSS10;-inkscape-font-specification:CMSS10;writing-mode:lr-tb;fill:#000000;fill-opacity:1;fill-rule:nonzero;stroke:none"
                     transform="matrix(1,0,0,-1,208.689,343.596)"><tspan
                       id="tspan28"
                       y="0"
                       x="0 2.7676103 7.9152856 12.342665 17.490341 21.087835 23.467901 26.51247 34.423771 37.191383 41.010048 44.828712 49.976387">IdentifyIssue</tspan></text>
<g
                     transform="translate(196.042,343.596)"
                     id="g32" /></g></g><g
                 transform="translate(39.85,2.49)"
                 id="g34" /></g></g><g
             id="g36"><path
               id="path38"
               style="fill:none;stroke:#000000;stroke-width:0.3985;stroke-linecap:butt;stroke-linejoin:miter;stroke-miterlimit:10;stroke-dasharray:none;stroke-opacity:1"
               d="M 41.7047,-58.21794 0,-37.40686 -41.7047,-58.21794 0,-79.02902 Z" /><g
               transform="translate(-24.906,-61.676)"
               id="g40"><g
                 transform="translate(4.566)"
                 id="g42"><g
                   transform="translate(-215.552,-284.41)"
                   id="g44"><text
                     id="text48"
                     style="font-variant:normal;font-weight:normal;font-size:9.96259975px;font-family:CMSS10;-inkscape-font-specification:CMSS10;writing-mode:lr-tb;fill:#000000;fill-opacity:1;fill-rule:nonzero;stroke:none"
                     transform="matrix(1,0,0,-1,215.552,284.41)"><tspan
                       id="tspan46"
                       y="0"
                       x="0 5.3967404 10.656993 15.084373 19.872398 23.469893 25.849958 30.831259 35.978935">Location?</tspan></text>
<g
                     transform="translate(210.986,284.41)"
                     id="g50" /></g></g><g
                 transform="translate(24.906,61.676)"
                 id="g52" /></g></g><g
             id="g54"><path
               id="path56"
               style="fill:none;stroke:#000000;stroke-width:0.3985;stroke-linecap:butt;stroke-linejoin:miter;stroke-miterlimit:10;stroke-dasharray:none;stroke-opacity:1"
               d="M 0,-8.77827 V -36.129" /><g
               transform="rotate(-90,-18.0645,-18.0645)"
               id="g58"><g
                 id="g60"><path
                   id="path62"
                   style="fill:#000000;fill-opacity:1;fill-rule:nonzero;stroke:#000000;stroke-width:0.3985;stroke-linecap:butt;stroke-linejoin:round;stroke-miterlimit:10;stroke-dasharray:none;stroke-opacity:1"
                   d="m 0.797,0 c -0.99625,0.19925 -1.99251,0.59775 -3.18802,1.29512 1.19551,-0.89662 1.19551,-1.69362 0,-2.59024 C -1.19551,-0.59775 -0.19925,-0.19925 0.797,0 Z" /></g></g></g><g
             id="g64"><path
               id="path66"
               style="fill:none;stroke:#000000;stroke-width:0.3985;stroke-linecap:butt;stroke-linejoin:miter;stroke-miterlimit:10;stroke-dasharray:none;stroke-opacity:1"
               d="m -104.46558,-114.91158 -65.61534,32.76641 -65.61534,-32.76641 65.61534,-32.7664 z" /><g
               transform="translate(-194.985,-106.414)"
               id="g68"><g
                 transform="translate(1.342)"
                 id="g70"><g
                   transform="translate(-42.249,-239.672)"
                   id="g72"><text
                     id="text80"
                     style="font-variant:normal;font-weight:normal;font-size:9.96259975px;font-family:CMSS10;-inkscape-font-specification:CMSS10;writing-mode:lr-tb;fill:#000000;fill-opacity:1;fill-rule:nonzero;stroke:none"
                     transform="matrix(1,0,0,-1,42.249,239.672)"><tspan
                       id="tspan74"
                       y="0"
                       x="0 6.3651052 11.346405 19.260695 24.408369 29.196396 32.793892 35.173954 40.321632 42.701694">Compatible</tspan><tspan
                       id="tspan76"
                       y="11.955"
                       x="9.1879997 13.781754 18.209135 21.613356 25.43202 27.812084 32.793385">version</tspan><tspan
                       id="tspan78"
                       y="23.91"
                       x="3.3759999 8.1640253 12.75778 17.545807 19.925871 22.305937 27.093962 32.241638 34.621704 39.049084">available?</tspan></text>
<g
                     transform="translate(40.907,239.672)"
                     id="g82" /></g></g><g
                 transform="translate(194.985,106.414)"
                 id="g84" /></g></g><g
             id="g86"><path
               id="path88"
               style="fill:none;stroke:#000000;stroke-width:0.3985;stroke-linecap:butt;stroke-linejoin:miter;stroke-miterlimit:10;stroke-dasharray:none;stroke-opacity:1"
               d="m -99.86533,-185.33134 h 86.3434 v 27.45224 h -86.3434 z" /><g
               transform="translate(-96.543,-168.116)"
               id="g90"><g
                 transform="translate(17.635)"
                 id="g92"><g
                   transform="translate(-156.984,-177.97)"
                   id="g94"><text
                     id="text100"
                     style="font-variant:normal;font-weight:normal;font-size:9.96259975px;font-family:CMSS10;-inkscape-font-specification:CMSS10;writing-mode:lr-tb;fill:#000000;fill-opacity:1;fill-rule:nonzero;stroke:none"
                     transform="matrix(1,0,0,-1,156.984,177.97)"><tspan
                       id="tspan96"
                       y="0"
                       x="0 6.433847 10.861226 16.008902 21.156578 25.583958 29.402622 36.317661 41.029972">Requestor</tspan><tspan
                       id="tspan98"
                       y="11.955"
                       x="-8.6129999 -3.7442775 -0.34005696 4.641243 9.2349977 11.615063 16.762739 24.507664 29.655338 35.081966 40.229641 45.01767 48.615162">provideupdate</tspan></text>
<g
                     transform="translate(139.349,177.97)"
                     id="g102" /></g></g><g
                 transform="translate(96.543,168.116)"
                 id="g104" /></g></g><g
             id="g106"><path
               id="path108"
               style="fill:none;stroke:#000000;stroke-width:0.3985;stroke-linecap:butt;stroke-linejoin:miter;stroke-miterlimit:10;stroke-dasharray:none;stroke-opacity:1"
               d="m -1.09642,-241.91652 -55.59721,27.75734 -55.5972,-27.75734 55.5972,-27.75734 z" /><g
               transform="translate(-81.599,-238.426)"
               id="g110"><g
                 transform="translate(2.518)"
                 id="g112"><g
                   transform="translate(-156.811,-107.66)"
                   id="g114"><text
                     id="text120"
                     style="font-variant:normal;font-weight:normal;font-size:9.96259975px;font-family:CMSS10;-inkscape-font-specification:CMSS10;writing-mode:lr-tb;fill:#000000;fill-opacity:1;fill-rule:nonzero;stroke:none"
                     transform="matrix(1,0,0,-1,156.811,107.66)"><tspan
                       id="tspan116"
                       y="0"
                       x="0 8.7172747 13.505301 15.885365 21.033041 24.630535 29.418562 31.798626 36.946301 41.37368">Maintainer</tspan><tspan
                       id="tspan118"
                       y="11.955"
                       x="-1.176 2.2282205 6.6556001 10.474264 15.900892 20.882193 26.029867 29.848532 32.2286 36.822353 41.249733">responsive?</tspan></text>
<g
                     transform="translate(154.293,107.66)"
                     id="g122" /></g></g><g
                 transform="translate(81.599,238.426)"
                 id="g124" /></g></g><g
             id="g126"><path
               id="path128"
               style="fill:none;stroke:#000000;stroke-width:0.3985;stroke-linecap:butt;stroke-linejoin:miter;stroke-miterlimit:10;stroke-dasharray:none;stroke-opacity:1"
               d="m -56.69363,-185.5306 v -27.34907" /><g
               transform="rotate(-90,-134.78665,-78.09302)"
               id="g130"><g
                 id="g132"><path
                   id="path134"
                   style="fill:#000000;fill-opacity:1;fill-rule:nonzero;stroke:#000000;stroke-width:0.3985;stroke-linecap:butt;stroke-linejoin:round;stroke-miterlimit:10;stroke-dasharray:none;stroke-opacity:1"
                   d="m 0.797,0 c -0.99625,0.19925 -1.99251,0.59775 -3.18802,1.29512 1.19551,-0.89662 1.19551,-1.69362 0,-2.59024 C -1.19551,-0.59775 -0.19925,-0.19925 0.797,0 Z" /></g></g></g><g
             id="g136"><g
               id="g138"><path
                 id="path140"
                 style="fill:#f9f9f9;fill-opacity:1;fill-rule:nonzero;stroke:#000000;stroke-width:0.79701;stroke-linecap:butt;stroke-linejoin:miter;stroke-miterlimit:10;stroke-dasharray:none;stroke-opacity:1"
                 d="m -99.86533,-345.69215 h 86.3434 v 37.47035 h -86.3434 z" /></g><g
               transform="translate(-96.543,-318.457)"
               id="g142"><g
                 transform="translate(19.607)"
                 id="g144"><g
                   transform="translate(-158.956,-27.629)"
                   id="g146"><text
                     id="text154"
                     style="font-variant:normal;font-weight:normal;font-size:9.96259975px;font-family:CMSS10;-inkscape-font-specification:CMSS10;writing-mode:lr-tb;fill:#000000;fill-opacity:1;fill-rule:nonzero;stroke:none"
                     transform="matrix(1,0,0,-1,158.956,27.629)"><tspan
                       id="tspan148"
                       y="0"
                       x="0 5.95365 10.741675 15.333438 23.078363 28.059664 32.653419 37.080799">Takeover</tspan><tspan
                       id="tspan150"
                       y="11.955"
                       x="-11.747 -3.8327105 0.95531499 3.3353801 8.4830551 12.08055 16.868576 22.016251 26.804277 31.951952 36.379333 44.124256 48.826603">maintananceor</tspan><tspan
                       id="tspan152"
                       y="23.91"
                       x="-9.8789997 -4.7313247 -0.91266 6.8322654 11.620291 14.000356 17.597851 22.02523 25.429451 30.577126 35.36515 38.962646 41.342712 45.936466">usealternative</tspan></text>
<g
                     transform="translate(139.349,27.629)"
                     id="g156" /></g></g><g
                 transform="translate(96.543,318.457)"
                 id="g158" /></g></g><g
             id="g160"><g
               id="g162"><path
                 id="path164"
                 style="fill:#f9f9f9;fill-opacity:1;fill-rule:nonzero;stroke:#000000;stroke-width:0.79701;stroke-linecap:butt;stroke-linejoin:miter;stroke-miterlimit:10;stroke-dasharray:none;stroke-opacity:1"
                 d="m -213.25261,-344.09529 h 86.3434 v 27.45224 h -86.3434 z" /></g><g
               transform="translate(-209.929,-326.878)"
               id="g166"><g
                 transform="translate(15.601)"
                 id="g168"><g
                   transform="translate(-41.564,-19.208)"
                   id="g170"><text
                     id="text176"
                     style="font-variant:normal;font-weight:normal;font-size:9.96259975px;font-family:CMSS10;-inkscape-font-specification:CMSS10;writing-mode:lr-tb;fill:#000000;fill-opacity:1;fill-rule:nonzero;stroke:none"
                     transform="matrix(1,0,0,-1,41.565,19.208)"><tspan
                       id="tspan172"
                       y="0"
                       x="0 6.8492875 12.275916 17.423592 22.211617 25.809111 33.554035 40.749027 45.176407">UpdateDe-</tspan><tspan
                       id="tspan174"
                       y="11.955"
                       x="4.8769999 10.303628 14.731008 19.878683 25.026358 29.453737 34.601414 39.028793">pendency</tspan></text>
<g
                     transform="translate(25.963,19.208)"
                     id="g178" /></g></g><g
                 transform="translate(209.929,326.878)"
                 id="g180" /></g></g><g
             id="g182"><path
               id="path184"
               style="fill:none;stroke:#000000;stroke-width:0.3985;stroke-linecap:butt;stroke-linejoin:miter;stroke-miterlimit:10;stroke-dasharray:none;stroke-opacity:1"
               d="m 213.7228,-114.91158 -43.64188,21.77968 -43.64189,-21.77968 43.64189,-21.77967 z" /><g
               transform="translate(145.173,-117.401)"
               id="g186"><g
                 transform="translate(12.356)"
                 id="g188"><g
                   transform="translate(-393.421,-228.685)"
                   id="g190"><text
                     id="text194"
                     style="font-variant:normal;font-weight:normal;font-size:9.96259975px;font-family:CMSS10;-inkscape-font-specification:CMSS10;writing-mode:lr-tb;fill:#000000;fill-opacity:1;fill-rule:nonzero;stroke:none"
                     transform="matrix(1,0,0,-1,393.421,228.685)"><tspan
                       id="tspan192"
                       y="0"
                       x="0 5.95365 10.547404 15.96407 20.391449">Type?</tspan></text>
<g
                     transform="translate(381.065,228.685)"
                     id="g196" /></g></g><g
                 transform="translate(-145.173,117.401)"
                 id="g198" /></g></g><g
             id="g200"><path
               id="path202"
               style="fill:none;stroke:#000000;stroke-width:0.3985;stroke-linecap:butt;stroke-linejoin:miter;stroke-miterlimit:10;stroke-dasharray:none;stroke-opacity:1"
               d="m 138.70047,-171.60521 -53.66002,26.78874 -53.66002,-26.78874 53.66002,-26.78874 z" /><g
               transform="translate(60.133,-169.085)"
               id="g204"><g
                 transform="translate(2.214)"
                 id="g206"><g
                   transform="translate(-298.239,-177.001)"
                   id="g208"><text
                     id="text214"
                     style="font-variant:normal;font-weight:normal;font-size:9.96259975px;font-family:CMSS10;-inkscape-font-specification:CMSS10;writing-mode:lr-tb;fill:#000000;fill-opacity:1;fill-rule:nonzero;stroke:none"
                     transform="matrix(1,0,0,-1,298.239,177.001)"><tspan
                       id="tspan210"
                       y="0"
                       x="0 6.6420655 9.022131 12.619625 17.047005 20.451225 25.5989 30.386927 33.984421 36.364487 40.958241">Alternative</tspan><tspan
                       id="tspan212"
                       y="11.955"
                       x="2.5050001 7.2930255 11.886781 16.674807 19.054871 21.434937 26.222961 31.370638 33.750702 38.178082">available?</tspan></text>
<g
                     transform="translate(296.025,177.001)"
                     id="g216" /></g></g><g
                 transform="translate(-60.133,169.085)"
                 id="g218" /></g></g><g
             id="g220"><g
               id="g222"><path
                 id="path224"
                 style="fill:#f9f9f9;fill-opacity:1;fill-rule:nonzero;stroke:#000000;stroke-width:0.79701;stroke-linecap:butt;stroke-linejoin:miter;stroke-miterlimit:10;stroke-dasharray:none;stroke-opacity:1"
                 d="m 41.86874,-244.5791 h 86.3434 v 17.15804 h -86.3434 z" /></g><g
               transform="translate(45.189,-239.456)"
               id="g226"><g
                 transform="translate(7.95)"
                 id="g228"><g
                   transform="translate(-289.031,-106.63)"
                   id="g230"><text
                     id="text234"
                     style="font-variant:normal;font-weight:normal;font-size:9.96259975px;font-family:CMSS10;-inkscape-font-specification:CMSS10;writing-mode:lr-tb;fill:#000000;fill-opacity:1;fill-rule:nonzero;stroke:none"
                     transform="matrix(1,0,0,-1,289.031,106.63)"><tspan
                       id="tspan232"
                       y="0"
                       x="0 6.8492875 10.667953 18.412878 25.054943 27.435007 31.032503 35.459881 38.864101 44.01178 48.799805 52.397297 54.777363 59.371117">UseAlternative</tspan></text>
<g
                     transform="translate(281.081,106.63)"
                     id="g236" /></g></g><g
                 transform="translate(-45.189,239.456)"
                 id="g238" /></g></g><g
             id="g240"><g
               id="g242"><path
                 id="path244"
                 style="fill:#f9f9f9;fill-opacity:1;fill-rule:nonzero;stroke:#000000;stroke-width:0.79701;stroke-linecap:butt;stroke-linejoin:miter;stroke-miterlimit:10;stroke-dasharray:none;stroke-opacity:1"
                 d="m 155.25603,-249.72621 h 86.3434 v 27.45224 h -86.3434 z" /></g><g
               transform="translate(158.575,-232.51)"
               id="g246"><g
                 transform="translate(9.513)"
                 id="g248"><g
                   transform="translate(-403.98,-113.576)"
                   id="g250"><text
                     id="text256"
                     style="font-variant:normal;font-weight:normal;font-size:9.96259975px;font-family:CMSS10;-inkscape-font-specification:CMSS10;writing-mode:lr-tb;fill:#000000;fill-opacity:1;fill-rule:nonzero;stroke:none"
                     transform="matrix(1,0,0,-1,403.98,113.576)"><tspan
                       id="tspan252"
                       y="0"
                       x="0 6.8492875 10.667953 18.412878 24.777983 29.759283 37.673573 45.58786 50.375885 55.523563">UseCommand</tspan><tspan
                       id="tspan254"
                       y="11.955"
                       x="9.1809998 14.577741 16.957806 22.10548 29.850407 35.523109 37.903175 42.6912 47.672501">LineFlags</tspan></text>
<g
                     transform="translate(394.467,113.576)"
                     id="g258" /></g></g><g
                 transform="translate(-158.575,232.51)"
                 id="g260" /></g></g><g
             id="g262"><g
               id="g264"><path
                 id="path266"
                 style="fill:#f9f9f9;fill-opacity:1;fill-rule:nonzero;stroke:#000000;stroke-width:0.79701;stroke-linecap:butt;stroke-linejoin:miter;stroke-miterlimit:10;stroke-dasharray:none;stroke-opacity:1"
                 d="m 268.64333,-244.5791 h 86.3434 v 17.15804 h -86.3434 z" /></g><g
               transform="translate(271.961,-238.488)"
               id="g268"><g
                 transform="translate(14.93)"
                 id="g270"><g
                   transform="translate(-522.783,-107.598)"
                   id="g272"><text
                     id="text276"
                     style="font-variant:normal;font-weight:normal;font-size:9.96259975px;font-family:CMSS10;-inkscape-font-specification:CMSS10;writing-mode:lr-tb;fill:#000000;fill-opacity:1;fill-rule:nonzero;stroke:none"
                     transform="matrix(1,0,0,-1,522.783,107.598)"><tspan
                       id="tspan274"
                       y="0"
                       x="0 6.6420655 11.789741 16.577766 21.725441 28.640482 35.005589 40.265839 45.413517">AdaptCode</tspan></text>
<g
                     transform="translate(507.853,107.598)"
                     id="g278" /></g></g><g
                 transform="translate(-271.961,238.488)"
                 id="g280" /></g></g><path
             id="path282"
             style="fill:none;stroke:#000000;stroke-width:0.3985;stroke-linecap:butt;stroke-linejoin:miter;stroke-miterlimit:10;stroke-dasharray:none;stroke-opacity:1"
             d="M -41.99055,-58.21794 H -170.08092 V -80.86758" /><g
             transform="rotate(-90,-125.47425,44.60667)"
             id="g284"><g
               id="g286"><path
                 id="path288"
                 style="fill:#000000;fill-opacity:1;fill-rule:nonzero;stroke:#000000;stroke-width:0.3985;stroke-linecap:butt;stroke-linejoin:round;stroke-miterlimit:10;stroke-dasharray:none;stroke-opacity:1"
                 d="m 0.797,0 c -0.99625,0.19925 -1.99251,0.59775 -3.18802,1.29512 1.19551,-0.89662 1.19551,-1.69362 0,-2.59024 C -1.19551,-0.59775 -0.19925,-0.19925 0.797,0 Z" /></g></g><g
             id="g290"><g
               transform="translate(-132.726,-54.697)"
               id="g292"><g
                 id="g294"><g
                   transform="translate(-103.166,-291.389)"
                   id="g296"><text
                     id="text300"
                     style="font-variant:normal;font-weight:normal;font-size:9.96259975px;font-family:CMSS10;-inkscape-font-specification:CMSS10;writing-mode:lr-tb;fill:#000000;fill-opacity:1;fill-rule:nonzero;stroke:none"
                     transform="matrix(1,0,0,-1,103.166,291.389)"><tspan
                       id="tspan298"
                       y="0"
                       x="0 5.9496646 10.54342 14.140914 18.568295 21.972515 27.12019 31.908215 37.605827 44.24789 50.612995">ExternalAPI</tspan></text>
<g
                     transform="translate(103.166,291.389)"
                     id="g302" /></g></g><g
                 transform="translate(132.726,54.697)"
                 id="g304" /></g></g><path
             id="path306"
             style="fill:none;stroke:#000000;stroke-width:0.3985;stroke-linecap:butt;stroke-linejoin:miter;stroke-miterlimit:10;stroke-dasharray:none;stroke-opacity:1"
             d="m -104.17816,-114.91158 h 47.48453 v -41.772" /><g
             transform="rotate(-90,-106.6886,-49.994975)"
             id="g308"><g
               id="g310"><path
                 id="path312"
                 style="fill:#000000;fill-opacity:1;fill-rule:nonzero;stroke:#000000;stroke-width:0.3985;stroke-linecap:butt;stroke-linejoin:round;stroke-miterlimit:10;stroke-dasharray:none;stroke-opacity:1"
                 d="m 0.797,0 c -0.99625,0.19925 -1.99251,0.59775 -3.18802,1.29512 1.19551,-0.89662 1.19551,-1.69362 0,-2.59024 C -1.19551,-0.59775 -0.19925,-0.19925 0.797,0 Z" /></g></g><g
             id="g314"><g
               transform="translate(-86.454,-111.39)"
               id="g316"><g
                 id="g318"><g
                   transform="translate(-149.438,-234.696)"
                   id="g320"><text
                     id="text324"
                     style="font-variant:normal;font-weight:normal;font-size:9.96259975px;font-family:CMSS10;-inkscape-font-specification:CMSS10;writing-mode:lr-tb;fill:#000000;fill-opacity:1;fill-rule:nonzero;stroke:none"
                     transform="matrix(1,0,0,-1,149.438,234.696)"><tspan
                       id="tspan322"
                       y="0"
                       x="0 7.0565095">No</tspan></text>
<g
                     transform="translate(149.438,234.696)"
                     id="g326" /></g></g><g
                 transform="translate(86.454,111.39)"
                 id="g328" /></g></g><path
             id="path330"
             style="fill:none;stroke:#000000;stroke-width:0.3985;stroke-linecap:butt;stroke-linejoin:miter;stroke-miterlimit:10;stroke-dasharray:none;stroke-opacity:1"
             d="m -170.08092,-147.95998 v -167.2883" /><g
             transform="rotate(-90,-242.6646,-72.58368)"
             id="g332"><g
               id="g334"><path
                 id="path336"
                 style="fill:#000000;fill-opacity:1;fill-rule:nonzero;stroke:#000000;stroke-width:0.3985;stroke-linecap:butt;stroke-linejoin:round;stroke-miterlimit:10;stroke-dasharray:none;stroke-opacity:1"
                 d="m 0.797,0 c -0.99625,0.19925 -1.99251,0.59775 -3.18802,1.29512 1.19551,-0.89662 1.19551,-1.69362 0,-2.59024 C -1.19551,-0.59775 -0.19925,-0.19925 0.797,0 Z" /></g></g><g
             id="g338"><g
               transform="translate(-177.108,-193.488)"
               id="g340"><g
                 id="g342"><g
                   transform="translate(-58.784,-152.598)"
                   id="g344"><text
                     id="text348"
                     style="font-variant:normal;font-weight:normal;font-size:9.96259975px;font-family:CMSS10;-inkscape-font-specification:CMSS10;writing-mode:lr-tb;fill:#000000;fill-opacity:1;fill-rule:nonzero;stroke:none"
                     transform="matrix(1,0,0,-1,58.784,152.598)"><tspan
                       id="tspan346"
                       y="0"
                       x="0 5.8151698 10.242549">Yes</tspan></text>
<g
                     transform="translate(58.784,152.598)"
                     id="g350" /></g></g><g
                 transform="translate(177.108,193.488)"
                 id="g352" /></g></g><path
             id="path354"
             style="fill:none;stroke:#000000;stroke-width:0.3985;stroke-linecap:butt;stroke-linejoin:miter;stroke-miterlimit:10;stroke-dasharray:none;stroke-opacity:1"
             d="m -112.57686,-241.91652 h -57.50406 v -73.33176" /><g
             transform="rotate(-90,-242.6646,-72.58368)"
             id="g356"><g
               id="g358"><path
                 id="path360"
                 style="fill:#000000;fill-opacity:1;fill-rule:nonzero;stroke:#000000;stroke-width:0.3985;stroke-linecap:butt;stroke-linejoin:round;stroke-miterlimit:10;stroke-dasharray:none;stroke-opacity:1"
                 d="m 0.797,0 c -0.99625,0.19925 -1.99251,0.59775 -3.18802,1.29512 1.19551,-0.89662 1.19551,-1.69362 0,-2.59024 C -1.19551,-0.59775 -0.19925,-0.19925 0.797,0 Z" /></g></g><g
             id="g362"><g
               transform="translate(-148.356,-238.393)"
               id="g364"><g
                 id="g366"><g
                   transform="translate(-87.536,-107.693)"
                   id="g368"><text
                     id="text372"
                     style="font-variant:normal;font-weight:normal;font-size:9.96259975px;font-family:CMSS10;-inkscape-font-specification:CMSS10;writing-mode:lr-tb;fill:#000000;fill-opacity:1;fill-rule:nonzero;stroke:none"
                     transform="matrix(1,0,0,-1,87.536,107.693)"><tspan
                       id="tspan370"
                       y="0"
                       x="0 5.8151698 10.242549">Yes</tspan></text>
<g
                     transform="translate(87.536,107.693)"
                     id="g374" /></g></g><g
                 transform="translate(148.356,238.393)"
                 id="g376" /></g></g><path
             id="path378"
             style="fill:none;stroke:#000000;stroke-width:0.3985;stroke-linecap:butt;stroke-linejoin:miter;stroke-miterlimit:10;stroke-dasharray:none;stroke-opacity:1"
             d="m -56.69363,-269.95712 v -36.86992" /><g
             transform="rotate(-90,-181.76033,-125.06671)"
             id="g380"><g
               id="g382"><path
                 id="path384"
                 style="fill:#000000;fill-opacity:1;fill-rule:nonzero;stroke:#000000;stroke-width:0.3985;stroke-linecap:butt;stroke-linejoin:round;stroke-miterlimit:10;stroke-dasharray:none;stroke-opacity:1"
                 d="m 0.797,0 c -0.99625,0.19925 -1.99251,0.59775 -3.18802,1.29512 1.19551,-0.89662 1.19551,-1.69362 0,-2.59024 C -1.19551,-0.59775 -0.19925,-0.19925 0.797,0 Z" /></g></g><g
             id="g386"><g
               transform="translate(-62.712,-282.879)"
               id="g388"><g
                 id="g390"><g
                   transform="translate(-173.18,-63.207)"
                   id="g392"><text
                     id="text396"
                     style="font-variant:normal;font-weight:normal;font-size:9.96259975px;font-family:CMSS10;-inkscape-font-specification:CMSS10;writing-mode:lr-tb;fill:#000000;fill-opacity:1;fill-rule:nonzero;stroke:none"
                     transform="matrix(1,0,0,-1,173.18,63.207)"><tspan
                       id="tspan394"
                       y="0"
                       x="0 7.0565095">No</tspan></text>
<g
                     transform="translate(173.18,63.207)"
                     id="g398" /></g></g><g
                 transform="translate(62.712,282.879)"
                 id="g400" /></g></g><path
             id="path402"
             style="fill:none;stroke:#000000;stroke-width:0.3985;stroke-linecap:butt;stroke-linejoin:miter;stroke-miterlimit:10;stroke-dasharray:none;stroke-opacity:1"
             d="M 41.99055,-58.21794 H 170.08092 V -91.85258" /><g
             transform="rotate(-90,39.11417,-130.96675)"
             id="g404"><g
               id="g406"><path
                 id="path408"
                 style="fill:#000000;fill-opacity:1;fill-rule:nonzero;stroke:#000000;stroke-width:0.3985;stroke-linecap:butt;stroke-linejoin:round;stroke-miterlimit:10;stroke-dasharray:none;stroke-opacity:1"
                 d="m 0.797,0 c -0.99625,0.19925 -1.99251,0.59775 -3.18802,1.29512 1.19551,-0.89662 1.19551,-1.69362 0,-2.59024 C -1.19551,-0.59775 -0.19925,-0.19925 0.797,0 Z" /></g></g><g
             id="g410"><g
               transform="translate(77.946,-54.697)"
               id="g412"><g
                 id="g414"><g
                   transform="translate(-313.838,-291.389)"
                   id="g416"><text
                     id="text420"
                     style="font-variant:normal;font-weight:normal;font-size:9.96259975px;font-family:CMSS10;-inkscape-font-specification:CMSS10;writing-mode:lr-tb;fill:#000000;fill-opacity:1;fill-rule:nonzero;stroke:none"
                     transform="matrix(1,0,0,-1,313.838,291.389)"><tspan
                       id="tspan418"
                       y="0"
                       x="0 2.7676103 7.9152856 11.51278 15.94016 19.344381 24.492056 29.280081 34.977692 41.342796 46.60305 51.750725">InternalCode</tspan></text>
<g
                     transform="translate(313.838,291.389)"
                     id="g422" /></g></g><g
                 transform="translate(-77.946,54.697)"
                 id="g424" /></g></g><path
             id="path426"
             style="fill:none;stroke:#000000;stroke-width:0.3985;stroke-linecap:butt;stroke-linejoin:miter;stroke-miterlimit:10;stroke-dasharray:none;stroke-opacity:1"
             d="M 126.15309,-114.91158 H 85.04045 v -28.62596" /><g
             transform="rotate(-90,-29.248545,-114.289)"
             id="g428"><g
               id="g430"><path
                 id="path432"
                 style="fill:#000000;fill-opacity:1;fill-rule:nonzero;stroke:#000000;stroke-width:0.3985;stroke-linecap:butt;stroke-linejoin:round;stroke-miterlimit:10;stroke-dasharray:none;stroke-opacity:1"
                 d="m 0.797,0 c -0.99625,0.19925 -1.99251,0.59775 -3.18802,1.29512 1.19551,-0.89662 1.19551,-1.69362 0,-2.59024 C -1.19551,-0.59775 -0.19925,-0.19925 0.797,0 Z" /></g></g><g
             id="g434"><g
               transform="translate(44.221,-111.39)"
               id="g436"><g
                 id="g438"><g
                   transform="translate(-280.113,-234.696)"
                   id="g440"><text
                     id="text444"
                     style="font-variant:normal;font-weight:normal;font-size:9.96259975px;font-family:CMSS10;-inkscape-font-specification:CMSS10;writing-mode:lr-tb;fill:#000000;fill-opacity:1;fill-rule:nonzero;stroke:none"
                     transform="matrix(1,0,0,-1,280.113,234.696)"><tspan
                       id="tspan442"
                       y="0"
                       x="0 2.7676103 7.9152856 11.51278 15.94016 19.344381 24.492056 29.280081 34.977692 41.619759 47.984863 54.070019 60.712086 65.139465 69.576805 74.004189 77.822853">InternalAPIAccess</tspan></text>
<g
                     transform="translate(280.113,234.696)"
                     id="g446" /></g></g><g
                 transform="translate(-44.221,111.39)"
                 id="g448" /></g></g><path
             id="path450"
             style="fill:none;stroke:#000000;stroke-width:0.3985;stroke-linecap:butt;stroke-linejoin:miter;stroke-miterlimit:10;stroke-dasharray:none;stroke-opacity:1"
             d="m 85.04045,-198.67662 v -27.34967" /><g
             transform="rotate(-90,-70.49292,-155.53337)"
             id="g452"><g
               id="g454"><path
                 id="path456"
                 style="fill:#000000;fill-opacity:1;fill-rule:nonzero;stroke:#000000;stroke-width:0.3985;stroke-linecap:butt;stroke-linejoin:round;stroke-miterlimit:10;stroke-dasharray:none;stroke-opacity:1"
                 d="m 0.797,0 c -0.99625,0.19925 -1.99251,0.59775 -3.18802,1.29512 1.19551,-0.89662 1.19551,-1.69362 0,-2.59024 C -1.19551,-0.59775 -0.19925,-0.19925 0.797,0 Z" /></g></g><g
             id="g458"><g
               transform="translate(78.011,-209.219)"
               id="g460"><g
                 id="g462"><g
                   transform="translate(-313.903,-136.867)"
                   id="g464"><text
                     id="text468"
                     style="font-variant:normal;font-weight:normal;font-size:9.96259975px;font-family:CMSS10;-inkscape-font-specification:CMSS10;writing-mode:lr-tb;fill:#000000;fill-opacity:1;fill-rule:nonzero;stroke:none"
                     transform="matrix(1,0,0,-1,313.903,136.867)"><tspan
                       id="tspan466"
                       y="0"
                       x="0 5.8151698 10.242549">Yes</tspan></text>
<g
                     transform="translate(313.903,136.867)"
                     id="g470" /></g></g><g
                 transform="translate(-78.011,209.219)"
                 id="g472" /></g></g><path
             id="path474"
             style="fill:none;stroke:#000000;stroke-width:0.3985;stroke-linecap:butt;stroke-linejoin:miter;stroke-miterlimit:10;stroke-dasharray:none;stroke-opacity:1"
             d="m 138.98724,-171.60521 h 59.44049 v -49.27399" /><g
             transform="rotate(-90,-11.225735,-209.65346)"
             id="g476"><g
               id="g478"><path
                 id="path480"
                 style="fill:#000000;fill-opacity:1;fill-rule:nonzero;stroke:#000000;stroke-width:0.3985;stroke-linecap:butt;stroke-linejoin:round;stroke-miterlimit:10;stroke-dasharray:none;stroke-opacity:1"
                 d="m 0.797,0 c -0.99625,0.19925 -1.99251,0.59775 -3.18802,1.29512 1.19551,-0.89662 1.19551,-1.69362 0,-2.59024 C -1.19551,-0.59775 -0.19925,-0.19925 0.797,0 Z" /></g></g><g
             id="g482"><g
               transform="translate(162.687,-168.083)"
               id="g484"><g
                 id="g486"><g
                   transform="translate(-398.579,-178.003)"
                   id="g488"><text
                     id="text492"
                     style="font-variant:normal;font-weight:normal;font-size:9.96259975px;font-family:CMSS10;-inkscape-font-specification:CMSS10;writing-mode:lr-tb;fill:#000000;fill-opacity:1;fill-rule:nonzero;stroke:none"
                     transform="matrix(1,0,0,-1,398.579,178.003)"><tspan
                       id="tspan490"
                       y="0"
                       x="0 7.0565095">No</tspan></text>
<g
                     transform="translate(398.579,178.003)"
                     id="g494" /></g></g><g
                 transform="translate(-162.687,168.083)"
                 id="g496" /></g></g><path
             id="path498"
             style="fill:none;stroke:#000000;stroke-width:0.3985;stroke-linecap:butt;stroke-linejoin:miter;stroke-miterlimit:10;stroke-dasharray:none;stroke-opacity:1"
             d="m 214.00873,-114.91158 h 97.80629 v -111.11471" /><g
             transform="rotate(-90,42.894365,-268.92065)"
             id="g500"><g
               id="g502"><path
                 id="path504"
                 style="fill:#000000;fill-opacity:1;fill-rule:nonzero;stroke:#000000;stroke-width:0.3985;stroke-linecap:butt;stroke-linejoin:round;stroke-miterlimit:10;stroke-dasharray:none;stroke-opacity:1"
                 d="m 0.797,0 c -0.99625,0.19925 -1.99251,0.59775 -3.18802,1.29512 1.19551,-0.89662 1.19551,-1.69362 0,-2.59024 C -1.19551,-0.59775 -0.19925,-0.19925 0.797,0 Z" /></g></g><g
             id="g506"><g
               transform="translate(227.32,-109.453)"
               id="g508"><g
                 id="g510"><g
                   transform="translate(-463.212,-236.633)"
                   id="g512"><text
                     id="text516"
                     style="font-variant:normal;font-weight:normal;font-size:9.96259975px;font-family:CMSS10;-inkscape-font-specification:CMSS10;writing-mode:lr-tb;fill:#000000;fill-opacity:1;fill-rule:nonzero;stroke:none"
                     transform="matrix(1,0,0,-1,463.212,236.633)"><tspan
                       id="tspan514"
                       y="0"
                       x="0 6.3651052 11.346405 19.260695 24.408369 26.788435 29.168501 33.595879 40.317646 46.682751 51.830425 56.61845 61.766129 66.747429">CompilerChange</tspan></text>
<g
                     transform="translate(463.212,236.633)"
                     id="g518" /></g></g><g
                 transform="translate(-227.32,109.453)"
                 id="g520" /></g></g></g><g
           id="g522" /></g></g></g></svg>