<?xml version="1.0" encoding="UTF-8" standalone="no"?>
<svg
   xmlns:dc="http://purl.org/dc/elements/1.1/"
   xmlns:cc="http://creativecommons.org/ns#"
   xmlns:rdf="http://www.w3.org/1999/02/22-rdf-syntax-ns#"
   xmlns:svg="http://www.w3.org/2000/svg"
   xmlns="http://www.w3.org/2000/svg"
   viewBox="0 0 472.84668 208.936"
   height="208.936"
   width="472.84668"
   xml:space="preserve"
   id="svg2"
   version="1.1"><metadata
     id="metadata8"><rdf:RDF><cc:Work
         rdf:about=""><dc:format>image/svg+xml</dc:format><dc:type
           rdf:resource="http://purl.org/dc/dcmitype/StillImage" /><dc:title></dc:title></cc:Work></rdf:RDF></metadata><defs
     id="defs6" /><g
     transform="matrix(1.3333333,0,0,-1.3333333,0,208.936)"
     id="g10"><g
       transform="translate(177.317,56.892)"
       id="g12"><g
         id="g14"><g
           id="g16" /><g
           id="g18"><g
             id="g20"><path
               id="path22"
               style="fill:none;stroke:#000000;stroke-width:0.3985;stroke-linecap:butt;stroke-linejoin:miter;stroke-miterlimit:10;stroke-dasharray:none;stroke-opacity:1"
               d="M -99.21387,-28.3468 H 99.21386 V 28.34682 H -99.21387 Z" /><g
               transform="translate(-28.346)"
               id="g24"><g
                 transform="translate(28.346)"
                 id="g26"><g
                   transform="translate(-28.346)"
                   id="g28" /></g><g
                 transform="translate(28.346)"
                 id="g30" /></g></g><g
             id="g32"><g
               transform="translate(-12.079,18.108)"
               id="g34"><g
                 id="g36"><g
                   transform="translate(-165.238,-75)"
                   id="g38"><text
                     id="text42"
                     style="font-variant:normal;font-weight:normal;font-size:9.96259975px;font-family:CMSSBX10;-inkscape-font-specification:CMSSBX10;writing-mode:lr-tb;fill:#000000;fill-opacity:1;fill-rule:nonzero;stroke:none"
                     transform="matrix(1,0,0,-1,165.238,75)"><tspan
                       id="tspan40"
                       y="0"
                       x="0 5.7842855 11.263716 16.743145 19.289587">Logic</tspan></text>
<g
                     transform="translate(165.238,75)"
                     id="g44" /></g></g><g
                 transform="translate(12.079,-18.108)"
                 id="g46" /></g></g><g
             id="g48"><path
               id="path50"
               style="fill:none;stroke:#000000;stroke-width:0.3985;stroke-linecap:butt;stroke-linejoin:miter;stroke-miterlimit:10;stroke-dasharray:none;stroke-opacity:1"
               d="M -89.19176,-18.3247 H -15.2741 V -2.82778 H -89.19176 Z" /><g
               transform="translate(-85.87,-13.067)"
               id="g52"><g
                 id="g54"><g
                   transform="translate(-91.447,-43.825)"
                   id="g56"><text
                     id="text60"
                     style="font-variant:normal;font-weight:normal;font-size:9.96259975px;font-family:CMSS10;-inkscape-font-specification:CMSS10;writing-mode:lr-tb;fill:#000000;fill-opacity:1;fill-rule:nonzero;stroke:none"
                     transform="matrix(1,0,0,-1,91.447,43.825)"><tspan
                       id="tspan58"
                       y="0"
                       x="0 6.6420655 11.430091 15.857471 20.728186 25.87586 31.023537 39.74081 44.528835 49.676514 54.464539 59.445839 63.873219">BackupManager</tspan></text>
<g
                     transform="translate(91.447,43.825)"
                     id="g62" /></g></g><g
                 transform="translate(85.87,13.067)"
                 id="g64" /></g></g><g
             id="g66"><path
               id="path68"
               style="fill:none;stroke:#000000;stroke-width:0.3985;stroke-linecap:butt;stroke-linejoin:miter;stroke-miterlimit:10;stroke-dasharray:none;stroke-opacity:1"
               d="m 8.30016,-18.3247 h 80.8916 V -2.82778 H 8.30016 Z" /><g
               transform="translate(11.621,-13.067)"
               id="g70"><g
                 id="g72"><g
                   transform="translate(-188.938,-43.825)"
                   id="g74"><text
                     id="text78"
                     style="font-variant:normal;font-weight:normal;font-size:9.96259975px;font-family:CMSS10;-inkscape-font-specification:CMSS10;writing-mode:lr-tb;fill:#000000;fill-opacity:1;fill-rule:nonzero;stroke:none"
                     transform="matrix(1,0,0,-1,188.938,43.825)"><tspan
                       id="tspan76"
                       y="0"
                       x="0 6.6420655 11.789741 15.387236 20.368536 24.187201 28.975225 33.568981 37.996361 46.713634 51.501659 56.649338 61.437363 66.418663 70.846039">AutosaveManager</tspan></text>
<g
                     transform="translate(188.938,43.825)"
                     id="g80" /></g></g><g
                 transform="translate(-11.621,13.067)"
                 id="g82" /></g></g><g
             id="g84"><g
               transform="translate(-71.981,1.285)"
               id="g86"><g
                 id="g88"><g
                   transform="translate(-105.336,-58.177)"
                   id="g90"><text
                     id="text94"
                     style="font-variant:normal;font-weight:normal;font-size:7.97009993px;font-family:CMTT8;-inkscape-font-specification:CMTT8;writing-mode:lr-tb;fill:#000000;fill-opacity:1;fill-rule:nonzero;stroke:none"
                     transform="matrix(1,0,0,-1,105.336,58.177)"><tspan
                       id="tspan92"
                       y="0"
                       x="0 4.2345142 8.4690285 12.703543 16.938057 21.172571 25.407085 29.6416 33.876114 38.110626 42.345142 46.579655 50.814171 55.040714 59.275227 63.509743 67.744255 71.978767 76.213287 80.4478 84.682312 88.916824 93.151344 97.385857 101.62037 105.85488 110.08939 114.32391 118.55843 122.79294 127.02745 131.26196 135.49648 139.731">org.jabref.logic.autosaveandbackup</tspan></text>
<g
                     transform="translate(105.336,58.177)"
                     id="g96" /></g></g><g
                 transform="translate(71.981,-1.285)"
                 id="g98" /></g></g><g
             id="g100"><path
               id="path102"
               style="fill:none;stroke:#000000;stroke-width:0.3985;stroke-linecap:butt;stroke-linejoin:miter;stroke-miterlimit:10;stroke-dasharray:none;stroke-opacity:1"
               d="M -92.71158,-21.84453 H 92.71159 v 34.8405 H -92.71158 Z" /><g
               transform="translate(-89.389,-4.424)"
               id="g104"><g
                 transform="translate(89.389)"
                 id="g106"><g
                   transform="translate(-89.389)"
                   id="g108" /></g><g
                 transform="translate(89.389,4.424)"
                 id="g110" /></g></g><g
             id="g112"><path
               id="path114"
               style="fill:none;stroke:#000000;stroke-width:0.3985;stroke-linecap:butt;stroke-linejoin:miter;stroke-miterlimit:10;stroke-dasharray:none;stroke-opacity:1"
               d="m -177.12053,-28.3468 h 63.33475 v 56.69362 h -63.33475 z" /><g
               transform="translate(-173.797,-3.459)"
               id="g116"><g
                 transform="translate(13.969)"
                 id="g118"><g
                   transform="translate(-17.489,-53.433)"
                   id="g120"><text
                     id="text124"
                     style="font-variant:normal;font-weight:normal;font-size:9.96259975px;font-family:CMSSBX10;-inkscape-font-specification:CMSSBX10;writing-mode:lr-tb;fill:#000000;fill-opacity:1;fill-rule:nonzero;stroke:none"
                     transform="matrix(1,0,0,-1,17.489,53.433)"><tspan
                       id="tspan122"
                       y="0"
                       x="0 9.7414303 15.529701 21.119717 26.211601">Model</tspan></text>
<g
                     transform="translate(3.52,53.433)"
                     id="g126" /></g></g><g
                 transform="translate(173.797,3.459)"
                 id="g128" /></g></g><g
             id="g130"><path
               id="path132"
               style="fill:none;stroke:#000000;stroke-width:0.3985;stroke-linecap:butt;stroke-linejoin:miter;stroke-miterlimit:10;stroke-dasharray:none;stroke-opacity:1"
               d="m 113.78577,-28.3468 h 63.33475 v 56.69362 h -63.33475 z" /><g
               transform="translate(117.105,-3.459)"
               id="g134"><g
                 transform="translate(1.948)"
                 id="g136"><g
                   transform="translate(-296.37,-53.433)"
                   id="g138"><text
                     id="text142"
                     style="font-variant:normal;font-weight:normal;font-size:9.96259975px;font-family:CMSSBX10;-inkscape-font-specification:CMSSBX10;writing-mode:lr-tb;fill:#000000;fill-opacity:1;fill-rule:nonzero;stroke:none"
                     transform="matrix(1,0,0,-1,296.37,53.433)"><tspan
                       id="tspan140"
                       y="0"
                       x="0 7.0017152 10.709795 15.80168 19.15011 24.241995 27.950075 33.041958 38.631973 43.502689 48.594574">Preferences</tspan></text>
<g
                     transform="translate(294.422,53.433)"
                     id="g144" /></g></g><g
                 transform="translate(-117.105,3.459)"
                 id="g146" /></g></g><g
             id="g148"><path
               id="path150"
               style="fill:none;stroke:#000000;stroke-width:0.3985;stroke-linecap:butt;stroke-linejoin:miter;stroke-miterlimit:10;stroke-dasharray:none;stroke-opacity:1"
               d="M -31.66737,42.9187 H 31.66738 V 99.61232 H -31.66737 Z" /><g
               transform="translate(-28.346,67.805)"
               id="g152"><g
                 transform="translate(19.242)"
                 id="g154"><g
                   transform="translate(-168.213,-124.697)"
                   id="g156"><text
                     id="text160"
                     style="font-variant:normal;font-weight:normal;font-size:9.96259975px;font-family:CMSSBX10;-inkscape-font-specification:CMSSBX10;writing-mode:lr-tb;fill:#000000;fill-opacity:1;fill-rule:nonzero;stroke:none"
                     transform="matrix(1,0,0,-1,168.213,124.697)"><tspan
                       id="tspan158"
                       y="0"
                       x="0 7.3055744 14.916005">GUI</tspan></text>
<g
                     transform="translate(148.971,124.697)"
                     id="g162" /></g></g><g
                 transform="translate(28.346,-67.805)"
                 id="g164" /></g></g><path
             id="path166"
             style="fill:none;stroke:#000000;stroke-width:0.3985;stroke-linecap:butt;stroke-linejoin:miter;stroke-miterlimit:10;stroke-dasharray:none;stroke-opacity:1"
             d="m -52.23293,-2.62852 c -32.80749,59.32214 -4.46069,59.32214 2.54064,32.14109" /><g
             transform="matrix(0.2499,-0.97014,0.97014,0.2499,-49.6923,29.51257)"
             id="g168"><g
               id="g170"><path
                 id="path172"
                 style="fill:#000000;fill-opacity:1;fill-rule:nonzero;stroke:#000000;stroke-width:0.3985;stroke-linecap:butt;stroke-linejoin:round;stroke-miterlimit:10;stroke-dasharray:none;stroke-opacity:1"
                 d="m 0.797,0 c -0.99625,0.19925 -1.99251,0.59775 -3.18802,1.29512 1.19551,-0.89662 1.19551,-1.69362 0,-2.59024 C -1.19551,-0.59775 -0.19925,-0.19925 0.797,0 Z" /></g></g><path
             id="path174"
             style="fill:none;stroke:#000000;stroke-width:0.3985;stroke-linecap:butt;stroke-linejoin:miter;stroke-miterlimit:10;stroke-dasharray:none;stroke-opacity:1"
             d="m -89.39102,-10.57623 h -23.19924" /><g
             transform="rotate(180,-56.29513,-5.288115)"
             id="g176"><g
               id="g178"><path
                 id="path180"
                 style="fill:#000000;fill-opacity:1;fill-rule:nonzero;stroke:#000000;stroke-width:0.3985;stroke-linecap:butt;stroke-linejoin:round;stroke-miterlimit:10;stroke-dasharray:none;stroke-opacity:1"
                 d="m 0.797,0 c -0.99625,0.19925 -1.99251,0.59775 -3.18802,1.29512 1.19551,-0.89662 1.19551,-1.69362 0,-2.59024 C -1.19551,-0.59775 -0.19925,-0.19925 0.797,0 Z" /></g></g><path
             id="path182"
             style="fill:none;stroke:#000000;stroke-width:0.3985;stroke-linecap:butt;stroke-linejoin:miter;stroke-miterlimit:10;stroke-dasharray:none;stroke-opacity:1"
             d="M -38.35378,-18.52396 C 28.3468,-56.69362 113.38724,-56.69362 128.8252,-29.41528" /><g
             transform="matrix(0.49382,0.8725,-0.8725,0.49382,128.82518,-29.41528)"
             id="g184"><g
               id="g186"><path
                 id="path188"
                 style="fill:#000000;fill-opacity:1;fill-rule:nonzero;stroke:#000000;stroke-width:0.3985;stroke-linecap:butt;stroke-linejoin:round;stroke-miterlimit:10;stroke-dasharray:none;stroke-opacity:1"
                 d="m 0.797,0 c -0.99625,0.19925 -1.99251,0.59775 -3.18802,1.29512 1.19551,-0.89662 1.19551,-1.69362 0,-2.59024 C -1.19551,-0.59775 -0.19925,-0.19925 0.797,0 Z" /></g></g><g
             id="g190"><path
               id="path192"
               style="fill:none;stroke:#00adef;stroke-width:0.79701;stroke-linecap:butt;stroke-linejoin:miter;stroke-miterlimit:10;stroke-dasharray:none;stroke-opacity:1"
               d="M -99.41312,0 H -112.1519" /><g
               transform="rotate(180,-56.07595,0)"
               id="g194"><g
                 id="g196"><path
                   id="path198"
                   style="fill:#00adef;fill-opacity:1;fill-rule:nonzero;stroke:#00adef;stroke-width:0.79701;stroke-linecap:butt;stroke-linejoin:round;stroke-miterlimit:10;stroke-dasharray:none;stroke-opacity:1"
                   d="m 1.0361,0 c -1.29512,0.25902 -2.59025,0.77707 -4.1444,1.68365 1.55415,-1.1656 1.55415,-2.2017 0,-3.3673 1.55415,0.90658 2.84928,1.42463 4.1444,1.68365 z" /></g></g></g><g
             id="g200"><path
               id="path202"
               style="fill:none;stroke:#00adef;stroke-width:0.79701;stroke-linecap:butt;stroke-linejoin:miter;stroke-miterlimit:10;stroke-dasharray:none;stroke-opacity:1"
               d="M -31.86662,71.26552 H -145.45314 V 29.98067" /><g
               transform="rotate(-90,-57.736235,87.716905)"
               id="g204"><g
                 id="g206"><path
                   id="path208"
                   style="fill:#00adef;fill-opacity:1;fill-rule:nonzero;stroke:#00adef;stroke-width:0.79701;stroke-linecap:butt;stroke-linejoin:round;stroke-miterlimit:10;stroke-dasharray:none;stroke-opacity:1"
                   d="m 1.0361,0 c -1.29512,0.25902 -2.59025,0.77707 -4.1444,1.68365 1.55415,-1.1656 1.55415,-2.2017 0,-3.3673 1.55415,0.90658 2.84928,1.42463 4.1444,1.68365 z" /></g></g></g><g
             id="g210"><path
               id="path212"
               style="fill:none;stroke:#00adef;stroke-width:0.79701;stroke-linecap:butt;stroke-linejoin:miter;stroke-miterlimit:10;stroke-dasharray:none;stroke-opacity:1"
               d="M 0,42.71945 V 29.98067" /><g
               transform="rotate(-90,14.990335,14.990335)"
               id="g214"><g
                 id="g216"><path
                   id="path218"
                   style="fill:#00adef;fill-opacity:1;fill-rule:nonzero;stroke:#00adef;stroke-width:0.79701;stroke-linecap:butt;stroke-linejoin:round;stroke-miterlimit:10;stroke-dasharray:none;stroke-opacity:1"
                   d="m 1.0361,0 c -1.29512,0.25902 -2.59025,0.77707 -4.1444,1.68365 1.55415,-1.1656 1.55415,-2.2017 0,-3.3673 1.55415,0.90658 2.84928,1.42463 4.1444,1.68365 z" /></g></g></g><g
             id="g220"><path
               id="path222"
               style="fill:none;stroke:#00adef;stroke-width:0.79701;stroke-linecap:butt;stroke-linejoin:miter;stroke-miterlimit:10;stroke-dasharray:none;stroke-opacity:1"
               d="M 31.86662,71.26552 H 145.45314 V 29.98067" /><g
               transform="rotate(-90,87.716905,-57.736235)"
               id="g224"><g
                 id="g226"><path
                   id="path228"
                   style="fill:#00adef;fill-opacity:1;fill-rule:nonzero;stroke:#00adef;stroke-width:0.79701;stroke-linecap:butt;stroke-linejoin:round;stroke-miterlimit:10;stroke-dasharray:none;stroke-opacity:1"
                   d="m 1.0361,0 c -1.29512,0.25902 -2.59025,0.77707 -4.1444,1.68365 1.55415,-1.1656 1.55415,-2.2017 0,-3.3673 1.55415,0.90658 2.84928,1.42463 4.1444,1.68365 z" /></g></g></g></g></g></g></g></svg>