<?xml version="1.0" encoding="UTF-8" standalone="no"?>
<svg
   xmlns:dc="http://purl.org/dc/elements/1.1/"
   xmlns:cc="http://creativecommons.org/ns#"
   xmlns:rdf="http://www.w3.org/1999/02/22-rdf-syntax-ns#"
   xmlns:svg="http://www.w3.org/2000/svg"
   xmlns="http://www.w3.org/2000/svg"
   viewBox="0 0 322.32266 171.14133"
   height="171.14133"
   width="322.32266"
   xml:space="preserve"
   id="svg2"
   version="1.1"><metadata
     id="metadata8"><rdf:RDF><cc:Work
         rdf:about=""><dc:format>image/svg+xml</dc:format><dc:type
           rdf:resource="http://purl.org/dc/dcmitype/StillImage" /><dc:title></dc:title></cc:Work></rdf:RDF></metadata><defs
     id="defs6" /><g
     transform="matrix(1.3333333,0,0,-1.3333333,0,171.14133)"
     id="g10"><g
       transform="translate(42.719,99.81)"
       id="g12"><g
         id="g14"><g
           id="g16" /><g
           id="g18"><g
             id="g20"><path
               id="path22"
               style="fill:none;stroke:#000000;stroke-width:0.3985;stroke-linecap:butt;stroke-linejoin:miter;stroke-miterlimit:10;stroke-dasharray:none;stroke-opacity:1"
               d="M -42.52022,-28.3468 H 42.52022 V 28.34682 H -42.52022 Z" /><g
               transform="translate(-28.347)"
               id="g24"><g
                 transform="translate(28.347)"
                 id="g26"><g
                   transform="translate(-28.347)"
                   id="g28" /></g><g
                 transform="translate(28.347)"
                 id="g30" /></g></g><g
             id="g32"><g
               transform="translate(-12.08,18.108)"
               id="g34"><g
                 id="g36"><g
                   transform="translate(-30.639,-117.918)"
                   id="g38"><text
                     id="text42"
                     style="font-variant:normal;font-weight:normal;font-size:9.96259975px;font-family:CMSSBX10;-inkscape-font-specification:CMSSBX10;writing-mode:lr-tb;fill:#000000;fill-opacity:1;fill-rule:nonzero;stroke:none"
                     transform="matrix(1,0,0,-1,30.639,117.918)"><tspan
                       id="tspan40"
                       y="0"
                       x="0 5.7842855 11.263716 16.743145 19.289587">Logic</tspan></text>
<g
                     transform="translate(30.639,117.918)"
                     id="g44" /></g></g><g
                 transform="translate(12.08,-18.108)"
                 id="g46" /></g></g><g
             id="g48"><path
               id="path50"
               style="fill:none;stroke:#000000;stroke-width:0.3985;stroke-linecap:butt;stroke-linejoin:miter;stroke-miterlimit:10;stroke-dasharray:none;stroke-opacity:1"
               d="M -33.7624,-14.1734 H 33.76241 V 1.32352 H -33.7624 Z" /><g
               transform="translate(-30.442,-8.915)"
               id="g52"><g
                 id="g54"><g
                   transform="translate(-12.277,-90.895)"
                   id="g56"><text
                     id="text60"
                     style="font-variant:normal;font-weight:normal;font-size:9.96259975px;font-family:CMSS10;-inkscape-font-specification:CMSS10;writing-mode:lr-tb;fill:#000000;fill-opacity:1;fill-rule:nonzero;stroke:none"
                     transform="matrix(1,0,0,-1,12.277,90.895)"><tspan
                       id="tspan58"
                       y="0"
                       x="0 7.3334699 12.760098 17.187477 22.335154 29.530142 34.318169 37.915665 42.70369 47.851364 52.639389 56.458054">OpenDatabase</tspan></text>
<g
                     transform="translate(12.277,90.895)"
                     id="g62" /></g></g><g
                 transform="translate(30.442,8.915)"
                 id="g64" /></g></g><g
             id="g66"><path
               id="path68"
               style="fill:none;stroke:#000000;stroke-width:0.3985;stroke-linecap:butt;stroke-linejoin:miter;stroke-miterlimit:10;stroke-dasharray:none;stroke-opacity:1"
               d="M -31.66737,-99.61232 H 31.66738 V -42.9187 H -31.66737 Z" /><g
               transform="translate(-28.347,-74.724)"
               id="g70"><g
                 transform="translate(19.242)"
                 id="g72"><g
                   transform="translate(-33.614,-25.086)"
                   id="g74"><text
                     id="text78"
                     style="font-variant:normal;font-weight:normal;font-size:9.96259975px;font-family:CMSSBX10;-inkscape-font-specification:CMSSBX10;writing-mode:lr-tb;fill:#000000;fill-opacity:1;fill-rule:nonzero;stroke:none"
                     transform="matrix(1,0,0,-1,33.614,25.086)"><tspan
                       id="tspan76"
                       y="0"
                       x="0 7.3055744 14.916005">GUI</tspan></text>
<g
                     transform="translate(14.372,25.086)"
                     id="g80" /></g></g><g
                 transform="translate(28.347,74.724)"
                 id="g82" /></g></g><g
             id="g84"><path
               id="path86"
               style="fill:none;stroke:#000000;stroke-width:0.3985;stroke-linecap:butt;stroke-linejoin:miter;stroke-miterlimit:10;stroke-dasharray:none;stroke-opacity:1"
               d="M 57.09212,-99.21387 H 198.82621 V 28.3468 H 57.09212 Z" /><g
               transform="translate(99.611,-35.433)"
               id="g88"><g
                 transform="translate(28.346)"
                 id="g90"><g
                   transform="translate(-28.346)"
                   id="g92" /></g><g
                 transform="translate(-99.611,35.433)"
                 id="g94" /></g></g><g
             id="g96"><g
               transform="translate(95.546,18.108)"
               id="g98"><g
                 id="g100"><g
                   transform="translate(-138.265,-117.918)"
                   id="g102"><text
                     id="text106"
                     style="font-variant:normal;font-weight:normal;font-size:9.96259975px;font-family:CMSSBX10;-inkscape-font-specification:CMSSBX10;writing-mode:lr-tb;fill:#000000;fill-opacity:1;fill-rule:nonzero;stroke:none"
                     transform="matrix(1,0,0,-1,138.265,117.918)"><tspan
                       id="tspan104"
                       y="0"
                       x="0 7.3055744 9.8520155 15.331445 20.921459 26.151825 32.354538 39.356255 41.902695 47.13306 51.33429 55.525555 60.617439">GlobalClasses</tspan></text>
<g
                     transform="translate(138.265,117.918)"
                     id="g108" /></g></g><g
                 transform="translate(-95.546,-18.108)"
                 id="g110" /></g></g><g
             id="g112"><path
               id="path114"
               style="fill:none;stroke:#000000;stroke-width:0.3985;stroke-linecap:butt;stroke-linejoin:miter;stroke-miterlimit:10;stroke-dasharray:none;stroke-opacity:1"
               d="m 67.94496,-85.04047 h 120.0284 v 7.36067 H 67.94496 Z" /><g
               transform="translate(71.265,-81.719)"
               id="g116"><g
                 transform="translate(53.164)"
                 id="g118"><g
                   transform="translate(-167.148,-18.091)"
                   id="g120"><text
                     id="text124"
                     style="font-variant:normal;font-weight:normal;font-size:7.97009993px;font-family:CMSS8;-inkscape-font-specification:CMSS8;writing-mode:lr-tb;fill:#000000;fill-opacity:1;fill-rule:nonzero;stroke:none"
                     transform="matrix(1,0,0,-1,167.148,18.091)"><tspan
                       id="tspan122"
                       y="0"
                       x="0 2.3519764 4.7039528">...</tspan></text>
<g
                     transform="translate(113.984,18.091)"
                     id="g126" /></g></g><g
                 transform="translate(-71.265,81.719)"
                 id="g128" /></g></g><g
             id="g130"><path
               id="path132"
               style="fill:none;stroke:#000000;stroke-width:0.3985;stroke-linecap:butt;stroke-linejoin:miter;stroke-miterlimit:10;stroke-dasharray:none;stroke-opacity:1"
               d="m 67.94496,-63.1079 h 120.0284 v 13.72577 H 67.94496 Z" /><g
               transform="translate(71.265,-58.237)"
               id="g134"><g
                 transform="translate(10.521)"
                 id="g136"><g
                   transform="translate(-124.505,-41.573)"
                   id="g138"><text
                     id="text142"
                     style="font-variant:normal;font-weight:normal;font-size:7.97009993px;font-family:CMSS8;-inkscape-font-specification:CMSS8;writing-mode:lr-tb;fill:#000000;fill-opacity:1;fill-rule:nonzero;stroke:none"
                     transform="matrix(1,0,0,-1,124.505,41.573)"><tspan
                       id="tspan140"
                       y="0"
                       x="0 4.8426328 6.8630533 8.8834734 12.646955 15.893176 23.891172 25.911592 28.969719 33.342117 39.153912 43.52631 47.760826 50.653175 54.721111 59.09351 62.856991 70.615883 74.45269 77.345039 81.717438 83.737854 88.110252">FilesWithUpgradeWarning</tspan></text>
<g
                     transform="translate(113.984,41.573)"
                     id="g144" /></g></g><g
                 transform="translate(-71.265,58.237)"
                 id="g146" /></g></g><g
             id="g148"><path
               id="path150"
               style="fill:none;stroke:#000000;stroke-width:0.3985;stroke-linecap:butt;stroke-linejoin:miter;stroke-miterlimit:10;stroke-dasharray:none;stroke-opacity:1"
               d="m 67.94496,-34.81021 h 120.0284 v 13.72577 H 67.94496 Z" /><g
               transform="translate(71.265,-29.939)"
               id="g152"><g
                 transform="translate(5.207)"
                 id="g154"><g
                   transform="translate(-119.191,-69.871)"
                   id="g156"><text
                     id="text160"
                     style="font-variant:normal;font-weight:normal;font-size:7.97009993px;font-family:CMSS8;-inkscape-font-specification:CMSS8;writing-mode:lr-tb;fill:#000000;fill-opacity:1;fill-rule:nonzero;stroke:none"
                     transform="matrix(1,0,0,-1,119.191,69.871)"><tspan
                       id="tspan158"
                       y="0"
                       x="0 5.4101038 9.644618 14.017015 17.919176 21.682657 24.575006 27.633133 32.24065 36.004131 40.238644 44.306583 48.070065 51.972225 57.050774 60.952934 65.325333 67.345749 69.366173 73.129654 75.15007 78.208199 83.853424 86.745773 90.980286 95.352684 99.725082">ConvertLegacyExplicitGroups</tspan></text>
<g
                     transform="translate(113.984,69.871)"
                     id="g162" /></g></g><g
                 transform="translate(-71.265,29.939)"
                 id="g164" /></g></g><g
             id="g166"><g
               transform="translate(83.499,-12.759)"
               id="g168"><g
                 id="g170"><g
                   transform="translate(-126.218,-87.051)"
                   id="g172"><text
                     id="text176"
                     style="font-variant:normal;font-weight:normal;font-size:7.97009993px;font-family:CMTT8;-inkscape-font-specification:CMTT8;writing-mode:lr-tb;fill:#000000;fill-opacity:1;fill-rule:nonzero;stroke:none"
                     transform="matrix(1,0,0,-1,126.218,87.051)"><tspan
                       id="tspan174"
                       y="0"
                       x="0 4.2345142 8.4690285 12.703543 16.938057 21.172571 25.407085 29.6416 33.876114 38.110626 42.345142 46.571686 50.806198 55.040714 59.275227 63.509743 67.744255 71.978767 76.213287 80.4478 84.682312">org.jabref.migrations</tspan></text>
<g
                     transform="translate(126.218,87.051)"
                     id="g178" /></g></g><g
                 transform="translate(-83.499,12.759)"
                 id="g180" /></g></g><g
             id="g182"><path
               id="path184"
               style="fill:none;stroke:#000000;stroke-width:0.3985;stroke-linecap:butt;stroke-linejoin:miter;stroke-miterlimit:10;stroke-dasharray:none;stroke-opacity:1"
               d="m 64.42514,-88.56029 h 127.06804 v 87.5118 H 64.42514 Z" /><g
               transform="translate(67.745,-44.804)"
               id="g186"><g
                 transform="translate(60.213)"
                 id="g188"><g
                   transform="translate(-60.213)"
                   id="g190" /></g><g
                 transform="translate(-67.745,44.804)"
                 id="g192" /></g></g><path
             id="path194"
             style="fill:none;stroke:#000000;stroke-width:0.3985;stroke-linecap:butt;stroke-linejoin:miter;stroke-miterlimit:10;stroke-dasharray:none;stroke-opacity:1"
             d="M 2.8927,-14.37265 C 14.17339,-28.3468 28.3468,-36.85092 66.77272,-28.16719" /><g
             transform="matrix(0.97664,0.2207,-0.2207,0.97664,66.77272,-28.1672)"
             id="g196"><g
               id="g198"><path
                 id="path200"
                 style="fill:#000000;fill-opacity:1;fill-rule:nonzero;stroke:#000000;stroke-width:0.3985;stroke-linecap:butt;stroke-linejoin:round;stroke-miterlimit:10;stroke-dasharray:none;stroke-opacity:1"
                 d="m 0.797,0 c -0.99625,0.19925 -1.99251,0.59775 -3.18802,1.29512 1.19551,-0.89662 1.19551,-1.69362 0,-2.59024 C -1.19551,-0.59775 -0.19925,-0.19925 0.797,0 Z" /></g></g><path
             id="path202"
             style="fill:none;stroke:#000000;stroke-width:0.3985;stroke-linecap:butt;stroke-linejoin:miter;stroke-miterlimit:10;stroke-dasharray:none;stroke-opacity:1"
             d="M 87.89272,-20.88518 C 56.69362,-8.50412 56.69362,-8.50412 43.71393,-7.60184" /><g
             transform="matrix(-0.9982,0.06937,-0.06937,-0.9982,43.71393,-7.60185)"
             id="g204"><g
               id="g206"><path
                 id="path208"
                 style="fill:#000000;fill-opacity:1;fill-rule:nonzero;stroke:#000000;stroke-width:0.3985;stroke-linecap:butt;stroke-linejoin:round;stroke-miterlimit:10;stroke-dasharray:none;stroke-opacity:1"
                 d="m 0.797,0 c -0.99625,0.19925 -1.99251,0.59775 -3.18802,1.29512 1.19551,-0.89662 1.19551,-1.69362 0,-2.59024 C -1.19551,-0.59775 -0.19925,-0.19925 0.797,0 Z" /></g></g><path
             id="path210"
             style="fill:none;stroke:#000000;stroke-width:0.3985;stroke-linecap:butt;stroke-linejoin:miter;stroke-miterlimit:10;stroke-dasharray:none;stroke-opacity:1"
             d="M 67.74571,-56.245 H 32.86288" /><g
             transform="rotate(180,16.43144,-28.1225)"
             id="g212"><g
               id="g214"><path
                 id="path216"
                 style="fill:#000000;fill-opacity:1;fill-rule:nonzero;stroke:#000000;stroke-width:0.3985;stroke-linecap:butt;stroke-linejoin:round;stroke-miterlimit:10;stroke-dasharray:none;stroke-opacity:1"
                 d="m 0.797,0 c -0.99625,0.19925 -1.99251,0.59775 -3.18802,1.29512 1.19551,-0.89662 1.19551,-1.69362 0,-2.59024 C -1.19551,-0.59775 -0.19925,-0.19925 0.797,0 Z" /></g></g><path
             id="path218"
             style="fill:none;stroke:#000000;stroke-width:0.3985;stroke-linecap:butt;stroke-linejoin:miter;stroke-miterlimit:10;stroke-dasharray:none;stroke-opacity:1"
             d="M 102.74727,-49.18286 C 28.3468,-28.3468 14.17339,-56.69362 5.34164,-29.49492" /><g
             transform="matrix(-0.30928,0.95242,-0.95242,-0.30928,5.34166,-29.49492)"
             id="g220"><g
               id="g222"><path
                 id="path224"
                 style="fill:#000000;fill-opacity:1;fill-rule:nonzero;stroke:#000000;stroke-width:0.3985;stroke-linecap:butt;stroke-linejoin:round;stroke-miterlimit:10;stroke-dasharray:none;stroke-opacity:1"
                 d="m 0.797,0 c -0.99625,0.19925 -1.99251,0.59775 -3.18802,1.29512 1.19551,-0.89662 1.19551,-1.69362 0,-2.59024 C -1.19551,-0.59775 -0.19925,-0.19925 0.797,0 Z" /></g></g><g
             id="g226"><path
               id="path228"
               style="fill:none;stroke:#00adef;stroke-width:0.79701;stroke-linecap:butt;stroke-linejoin:miter;stroke-miterlimit:10;stroke-dasharray:none;stroke-opacity:1"
               d="m 0,-42.71945 v 12.73878" /><g
               transform="rotate(90,14.990335,-14.990335)"
               id="g230"><g
                 id="g232"><path
                   id="path234"
                   style="fill:#00adef;fill-opacity:1;fill-rule:nonzero;stroke:#00adef;stroke-width:0.79701;stroke-linecap:butt;stroke-linejoin:round;stroke-miterlimit:10;stroke-dasharray:none;stroke-opacity:1"
                   d="m 1.0361,0 c -1.29512,0.25902 -2.59025,0.77707 -4.1444,1.68365 1.55415,-1.1656 1.55415,-2.2017 0,-3.3673 1.55415,0.90658 2.84928,1.42463 4.1444,1.68365 z" /></g></g></g><g
             id="g236"><path
               id="path238"
               style="fill:none;stroke:#00adef;stroke-width:0.79701;stroke-linecap:butt;stroke-linejoin:miter;stroke-miterlimit:10;stroke-dasharray:none;stroke-opacity:1"
               d="M 33.30124,-71.26552 H 55.45825" /><g
               transform="rotate(180,16.65062,-35.63276)"
               id="g240"><g
                 id="g242"><path
                   id="path244"
                   style="fill:#00adef;fill-opacity:1;fill-rule:nonzero;stroke:#00adef;stroke-width:0.79701;stroke-linecap:butt;stroke-linejoin:round;stroke-miterlimit:10;stroke-dasharray:none;stroke-opacity:1"
                   d="m 1.0361,0 c -1.29512,0.25902 -2.59025,0.77707 -4.1444,1.68365 1.55415,-1.1656 1.55415,-2.2017 0,-3.3673 1.55415,0.90658 2.84928,1.42463 4.1444,1.68365 z" /></g></g><g
               transform="translate(55.45825,-71.26552)"
               id="g246"><g
                 id="g248"><path
                   id="path250"
                   style="fill:#00adef;fill-opacity:1;fill-rule:nonzero;stroke:#00adef;stroke-width:0.79701;stroke-linecap:butt;stroke-linejoin:round;stroke-miterlimit:10;stroke-dasharray:none;stroke-opacity:1"
                   d="m 1.0361,0 c -1.29512,0.25902 -2.59025,0.77707 -4.1444,1.68365 1.55415,-1.1656 1.55415,-2.2017 0,-3.3673 1.55415,0.90658 2.84928,1.42463 4.1444,1.68365 z" /></g></g></g><g
             id="g252"><path
               id="path254"
               style="fill:none;stroke:#00adef;stroke-width:0.79701;stroke-linecap:butt;stroke-linejoin:miter;stroke-miterlimit:10;stroke-dasharray:none;stroke-opacity:1"
               d="M 44.15408,0 H 55.45825" /><g
               transform="rotate(180,22.07704,0)"
               id="g256"><g
                 id="g258"><path
                   id="path260"
                   style="fill:#00adef;fill-opacity:1;fill-rule:nonzero;stroke:#00adef;stroke-width:0.79701;stroke-linecap:butt;stroke-linejoin:round;stroke-miterlimit:10;stroke-dasharray:none;stroke-opacity:1"
                   d="m 1.0361,0 c -1.29512,0.25902 -2.59025,0.77707 -4.1444,1.68365 1.55415,-1.1656 1.55415,-2.2017 0,-3.3673 1.55415,0.90658 2.84928,1.42463 4.1444,1.68365 z" /></g></g><g
               transform="translate(55.45825)"
               id="g262"><g
                 id="g264"><path
                   id="path266"
                   style="fill:#00adef;fill-opacity:1;fill-rule:nonzero;stroke:#00adef;stroke-width:0.79701;stroke-linecap:butt;stroke-linejoin:round;stroke-miterlimit:10;stroke-dasharray:none;stroke-opacity:1"
                   d="m 1.0361,0 c -1.29512,0.25902 -2.59025,0.77707 -4.1444,1.68365 1.55415,-1.1656 1.55415,-2.2017 0,-3.3673 1.55415,0.90658 2.84928,1.42463 4.1444,1.68365 z" /></g></g></g></g></g></g></g></svg>