<?xml version="1.0" encoding="UTF-8" standalone="no"?>
<svg
   xmlns:dc="http://purl.org/dc/elements/1.1/"
   xmlns:cc="http://creativecommons.org/ns#"
   xmlns:rdf="http://www.w3.org/1999/02/22-rdf-syntax-ns#"
   xmlns:svg="http://www.w3.org/2000/svg"
   xmlns="http://www.w3.org/2000/svg"
   viewBox="0 0 311.62268 176.96667"
   height="176.96667"
   width="311.62268"
   xml:space="preserve"
   id="svg2"
   version="1.1"><metadata
     id="metadata8"><rdf:RDF><cc:Work
         rdf:about=""><dc:format>image/svg+xml</dc:format><dc:type
           rdf:resource="http://purl.org/dc/dcmitype/StillImage" /><dc:title></dc:title></cc:Work></rdf:RDF></metadata><defs
     id="defs6" /><g
     transform="matrix(1.3333333,0,0,-1.3333333,0,176.96667)"
     id="g10"><g
       transform="translate(187.678,124.777)"
       id="g12"><g
         id="g14"><g
           id="g16" /><g
           id="g18"><g
             id="g20"><path
               id="path22"
               style="fill:none;stroke:#000000;stroke-width:0.3985;stroke-linecap:butt;stroke-linejoin:miter;stroke-miterlimit:10;stroke-dasharray:none;stroke-opacity:1"
               d="M -45.84079,-7.74846 H 45.84079 V 7.74846 h -91.68158 z" /><g
               transform="translate(-42.52,-2.49)"
               id="g24"><g
                 transform="translate(22.996)"
                 id="g26"><g
                   transform="translate(-168.154,-122.287)"
                   id="g28"><text
                     id="text32"
                     style="font-variant:normal;font-weight:normal;font-size:9.96259975px;font-family:CMSS10;-inkscape-font-specification:CMSS10;writing-mode:lr-tb;fill:#000000;fill-opacity:1;fill-rule:nonzero;stroke:none"
                     transform="matrix(1,0,0,-1,168.154,122.287)"><tspan
                       id="tspan30"
                       y="0"
                       x="0 4.7023473 8.1065674 13.087868 15.855478 18.512503 23.300529 28.169252 31.573471 36.000851">org.jabref</tspan></text>
<g
                     transform="translate(145.158,122.287)"
                     id="g34" /></g></g><g
                 transform="translate(42.52,2.49)"
                 id="g36" /></g></g><g
             id="g38"><path
               id="path40"
               style="fill:none;stroke:#000000;stroke-width:0.3985;stroke-linecap:butt;stroke-linejoin:miter;stroke-miterlimit:10;stroke-dasharray:none;stroke-opacity:1"
               d="m -45.84079,-122.85776 h 91.68158 v 15.49692 h -91.68158 z" /><g
               transform="translate(-42.52,-117.598)"
               id="g42"><g
                 transform="translate(9.048)"
                 id="g44"><g
                   transform="translate(-154.206,-7.179)"
                   id="g46"><text
                     id="text50"
                     style="font-variant:normal;font-weight:normal;font-size:9.96259975px;font-family:CMSS10;-inkscape-font-specification:CMSS10;writing-mode:lr-tb;fill:#000000;fill-opacity:1;fill-rule:nonzero;stroke:none"
                     transform="matrix(1,0,0,-1,154.206,7.179)"><tspan
                       id="tspan48"
                       y="0"
                       x="0 4.7023473 8.1065674 13.087868 15.855478 18.512503 23.300529 28.169252 31.573471 36.000851 39.045422 41.813034 49.727322 54.987576 60.13525 64.56263">org.jabref.model</tspan></text>
<g
                     transform="translate(145.158,7.179)"
                     id="g52" /></g></g><g
                 transform="translate(42.52,117.598)"
                 id="g54" /></g></g><g
             id="g56"><path
               id="path58"
               style="fill:none;stroke:#000000;stroke-width:0.3985;stroke-linecap:butt;stroke-linejoin:miter;stroke-miterlimit:10;stroke-dasharray:none;stroke-opacity:1"
               d="m -152.09427,-66.16411 h 91.68158 v 15.49692 h -91.68158 z" /><g
               transform="translate(-148.772,-60.905)"
               id="g60"><g
                 transform="translate(12.037)"
                 id="g62"><g
                   transform="translate(-50.943,-63.872)"
                   id="g64"><text
                     id="text68"
                     style="font-variant:normal;font-weight:normal;font-size:9.96259975px;font-family:CMSS10;-inkscape-font-specification:CMSS10;writing-mode:lr-tb;fill:#000000;fill-opacity:1;fill-rule:nonzero;stroke:none"
                     transform="matrix(1,0,0,-1,50.943,63.872)"><tspan
                       id="tspan66"
                       y="0"
                       x="0 4.7023473 8.1065674 13.087868 15.855478 18.512503 23.300529 28.169252 31.573471 36.000851 39.045422 41.813034 44.193096 49.174397 54.155697 56.535763">org.jabref.logic</tspan></text>
<g
                     transform="translate(38.906,63.872)"
                     id="g70" /></g></g><g
                 transform="translate(148.772,60.905)"
                 id="g72" /></g></g><g
             id="g74"><g
               id="g76"><path
                 id="path78"
                 style="fill:none;stroke:#000000;stroke-width:0.3985;stroke-linecap:butt;stroke-linejoin:miter;stroke-miterlimit:10;stroke-dasharray:2.98883, 2.98883;stroke-dashoffset:0;stroke-opacity:1"
                 d="m -187.48071,-124.57976 h 91.68158 v 15.49692 h -91.68158 z" /></g><g
               transform="translate(-184.158,-119.32)"
               id="g80"><g
                 transform="translate(12.881)"
                 id="g82"><g
                   transform="translate(-16.401,-5.457)"
                   id="g84"><text
                     id="text88"
                     style="font-variant:normal;font-weight:normal;font-size:9.96259975px;font-family:CMSS10;-inkscape-font-specification:CMSS10;writing-mode:lr-tb;fill:#000000;fill-opacity:1;fill-rule:nonzero;stroke:none"
                     transform="matrix(1,0,0,-1,16.401,5.457)"><tspan
                       id="tspan86"
                       y="0"
                       x="0 2.6570253 7.4450512 12.313773 15.717994 20.145374 23.189943 26.510479 30.107973 34.535355 38.354019 41.951511 47.099186 50.696682 53.076748 55.456814">jabref-testutils</tspan></text>
<g
                     transform="translate(3.52,5.457)"
                     id="g90" /></g></g><g
                 transform="translate(184.158,119.32)"
                 id="g92" /></g></g><path
             id="path94"
             style="fill:none;stroke:#000000;stroke-width:0.3985;stroke-linecap:butt;stroke-linejoin:miter;stroke-miterlimit:10;stroke-dasharray:none;stroke-opacity:1"
             d="M -14.4495,-7.94771 -90.92993,-49.98608" /><g
             transform="matrix(-0.8799,-0.48366,0.48366,-0.8799,-90.92993,-49.98607)"
             id="g96"><g
               id="g98"><path
                 id="path100"
                 style="fill:#000000;fill-opacity:1;fill-rule:nonzero;stroke:#000000;stroke-width:0.3985;stroke-linecap:butt;stroke-linejoin:round;stroke-miterlimit:10;stroke-dasharray:none;stroke-opacity:1"
                 d="m 0.797,0 c -0.99625,0.19925 -1.99251,0.59775 -3.18802,1.29512 1.19551,-0.89662 1.19551,-1.69362 0,-2.59024 C -1.19551,-0.59775 -0.19925,-0.19925 0.797,0 Z" /></g></g><path
             id="path102"
             style="fill:none;stroke:#000000;stroke-width:0.3985;stroke-linecap:butt;stroke-linejoin:miter;stroke-miterlimit:10;stroke-dasharray:none;stroke-opacity:1"
             d="m 0,-7.94771 v -98.2176" /><g
             transform="rotate(-90,-53.082655,-53.082655)"
             id="g104"><g
               id="g106"><path
                 id="path108"
                 style="fill:#000000;fill-opacity:1;fill-rule:nonzero;stroke:#000000;stroke-width:0.3985;stroke-linecap:butt;stroke-linejoin:round;stroke-miterlimit:10;stroke-dasharray:none;stroke-opacity:1"
                 d="m 0.797,0 c -0.99625,0.19925 -1.99251,0.59775 -3.18802,1.29512 1.19551,-0.89662 1.19551,-1.69362 0,-2.59024 C -1.19551,-0.59775 -0.19925,-0.19925 0.797,0 Z" /></g></g><path
             id="path110"
             style="fill:none;stroke:#000000;stroke-width:0.3985;stroke-linecap:butt;stroke-linejoin:miter;stroke-miterlimit:10;stroke-dasharray:none;stroke-opacity:1"
             d="m -91.36159,-66.36336 75.59465,-40.32857" /><g
             transform="matrix(0.88358,-0.47142,0.47142,0.88358,-15.76694,-106.69191)"
             id="g112"><g
               id="g114"><path
                 id="path116"
                 style="fill:#000000;fill-opacity:1;fill-rule:nonzero;stroke:#000000;stroke-width:0.3985;stroke-linecap:butt;stroke-linejoin:round;stroke-miterlimit:10;stroke-dasharray:none;stroke-opacity:1"
                 d="m 0.797,0 c -0.99625,0.19925 -1.99251,0.59775 -3.18802,1.29512 1.19551,-0.89662 1.19551,-1.69362 0,-2.59024 C -1.19551,-0.59775 -0.19925,-0.19925 0.797,0 Z" /></g></g><g
             id="g118"><path
               id="path120"
               style="fill:none;stroke:#000000;stroke-width:0.3985;stroke-linecap:butt;stroke-linejoin:miter;stroke-miterlimit:10;stroke-dasharray:2.98883, 2.98883;stroke-dashoffset:0;stroke-opacity:1"
               d="m -111.06567,-66.36336 -25.24529,-41.66595" /><g
               transform="matrix(-0.51955,-0.85748,0.85748,-0.51955,-136.31096,-108.02931)"
               id="g122"><g
                 id="g124"><path
                   id="path126"
                   style="fill:#000000;fill-opacity:1;fill-rule:nonzero;stroke:#000000;stroke-width:0.3985;stroke-linecap:butt;stroke-linejoin:round;stroke-miterlimit:10;stroke-dasharray:none;stroke-opacity:1"
                   d="m 0.797,0 c -0.99625,0.19925 -1.99251,0.59775 -3.18802,1.29512 1.19551,-0.89662 1.19551,-1.69362 0,-2.59024 C -1.19551,-0.59775 -0.19925,-0.19925 0.797,0 Z" /></g></g></g></g></g></g></g></svg>