<?xml version="1.0" encoding="UTF-8" standalone="no"?>
<svg
   xmlns:dc="http://purl.org/dc/elements/1.1/"
   xmlns:cc="http://creativecommons.org/ns#"
   xmlns:rdf="http://www.w3.org/1999/02/22-rdf-syntax-ns#"
   xmlns:svg="http://www.w3.org/2000/svg"
   xmlns="http://www.w3.org/2000/svg"
   viewBox="0 0 518.71198 222.42133"
   height="222.42133"
   width="518.71198"
   xml:space="preserve"
   id="svg2"
   version="1.1"><metadata
     id="metadata8"><rdf:RDF><cc:Work
         rdf:about=""><dc:format>image/svg+xml</dc:format><dc:type
           rdf:resource="http://purl.org/dc/dcmitype/StillImage" /><dc:title></dc:title></cc:Work></rdf:RDF></metadata><defs
     id="defs6" /><g
     transform="matrix(1.3333333,0,0,-1.3333333,0,222.42133)"
     id="g10"><g
       transform="translate(32.065,112.454)"
       id="g12"><g
         id="g14"><g
           id="g16" /><g
           id="g18"><g
             id="g20"><path
               id="path22"
               style="fill:none;stroke:#000000;stroke-width:0.3985;stroke-linecap:butt;stroke-linejoin:miter;stroke-miterlimit:10;stroke-dasharray:none;stroke-opacity:1"
               d="m -17.6932,-24.29399 v 48.58798 h 27.91433 l 7.47207,-7.47208 v -41.1159 z m 27.91433,48.58798 v -7.47208 h 7.47207 -7.47207" /><g
               transform="translate(-14.173,3.486)"
               id="g24"><g
                 transform="translate(3.325)"
                 id="g26"><g
                   transform="translate(-21.217,-115.94)"
                   id="g28"><text
                     id="text34"
                     style="font-variant:normal;font-weight:normal;font-size:9.96259975px;font-family:CMSS10;-inkscape-font-specification:CMSS10;writing-mode:lr-tb;fill:#000000;fill-opacity:1;fill-rule:nonzero;stroke:none"
                     transform="matrix(1,0,0,-1,21.217,115.94)"><tspan
                       id="tspan30"
                       y="0"
                       x="0 6.6420655 11.789741 14.169806 16.549871">Build</tspan><tspan
                       id="tspan32"
                       y="11.955"
                       x="-1.397 4.1382208 8.5656004 11.96982 14.349886 19.497561">Script</tspan></text>
<g
                     transform="translate(17.892,115.94)"
                     id="g36" /></g></g><g
                 transform="translate(14.173,-3.486)"
                 id="g38" /></g></g><g
             id="g40"><path
               id="path42"
               style="fill:none;stroke:#000000;stroke-width:0.3985;stroke-linecap:butt;stroke-linejoin:miter;stroke-miterlimit:10;stroke-dasharray:none;stroke-opacity:1"
               d="m 74.58609,-13.72612 h 63.33475 V 13.72612 H 74.58609 Z" /><g
               transform="translate(77.906,3.486)"
               id="g44"><g
                 transform="translate(3.163)"
                 id="g46"><g
                   transform="translate(-113.134,-115.94)"
                   id="g48"><text
                     id="text54"
                     style="font-variant:normal;font-weight:normal;font-size:9.96259975px;font-family:CMSS10;-inkscape-font-specification:CMSS10;writing-mode:lr-tb;fill:#000000;fill-opacity:1;fill-rule:nonzero;stroke:none"
                     transform="matrix(1,0,0,-1,113.134,115.94)"><tspan
                       id="tspan50"
                       y="0"
                       x="0 7.1949897 11.622369 17.048998 21.476377 26.624052 31.771729 36.199108 41.346783 45.774162">Dependency</tspan><tspan
                       id="tspan52"
                       y="11.955"
                       x="7.0570002 15.774275 20.5623 25.709976 30.498001 35.479301 39.906681">Manager</tspan></text>
<g
                     transform="translate(109.971,115.94)"
                     id="g56" /></g></g><g
                 transform="translate(-77.906,-3.486)"
                 id="g58" /></g></g><g
             id="g60"><path
               id="path62"
               style="fill:none;stroke:#000000;stroke-width:0.3985;stroke-linecap:butt;stroke-linejoin:miter;stroke-miterlimit:10;stroke-dasharray:none;stroke-opacity:1"
               d="m 68.7175,-19.59473 h 75.07195 V 19.59472 H 68.7175 Z" /><g
               transform="translate(74.386)"
               id="g64"><g
                 transform="translate(31.866)"
                 id="g66"><g
                   transform="translate(-31.866)"
                   id="g68" /></g><g
                 transform="translate(-74.386)"
                 id="g70" /></g></g><g
             id="g72"><g
               transform="translate(92.415,23.313)"
               id="g74"><g
                 id="g76"><g
                   transform="translate(-124.48,-135.767)"
                   id="g78"><text
                     id="text82"
                     style="font-variant:normal;font-weight:normal;font-size:9.96259975px;font-family:CMSS10;-inkscape-font-specification:CMSS10;writing-mode:lr-tb;fill:#000000;fill-opacity:1;fill-rule:nonzero;stroke:none"
                     transform="matrix(1,0,0,-1,124.48,135.767)"><tspan
                       id="tspan80"
                       y="0"
                       x="0 8.7172747 13.505301 18.099056 22.526434">Maven</tspan></text>
<g
                     transform="translate(124.48,135.767)"
                     id="g84" /></g></g><g
                 transform="translate(-92.415,-23.313)"
                 id="g86" /></g></g><g
             id="g88"><path
               id="path90"
               style="fill:none;stroke:#000000;stroke-width:0.3985;stroke-linecap:butt;stroke-linejoin:miter;stroke-miterlimit:10;stroke-dasharray:none;stroke-opacity:1"
               d="m 74.58609,-97.88307 h 63.33475 v 27.0648 H 74.58609 Z" /><g
               transform="translate(77.906,-80.669)"
               id="g92"><g
                 transform="translate(20.515)"
                 id="g94"><g
                   transform="translate(-130.486,-31.785)"
                   id="g96"><text
                     id="text102"
                     style="font-variant:normal;font-weight:normal;font-size:9.96259975px;font-family:CMSS10;-inkscape-font-specification:CMSS10;writing-mode:lr-tb;fill:#000000;fill-opacity:1;fill-rule:nonzero;stroke:none"
                     transform="matrix(1,0,0,-1,130.486,31.785)"><tspan
                       id="tspan98"
                       y="0"
                       x="0 2.7676103 10.6819">.m2</tspan><tspan
                       id="tspan100"
                       y="11.956"
                       x="-14.052 -7.6181531 -3.1907735 2.2358546 7.2171545 11.035819 13.415884 17.01338 21.715727 25.119947">Repository</tspan></text>
<g
                     transform="translate(109.971,31.785)"
                     id="g104" /></g></g><g
                 transform="translate(-77.906,80.669)"
                 id="g106" /></g></g><g
             id="g108"><g
               transform="translate(81.858,-108.52)"
               id="g110"><g
                 id="g112"><g
                   transform="translate(-113.923,-3.934)"
                   id="g114"><text
                     id="text118"
                     style="font-variant:normal;font-weight:normal;font-size:9.96259975px;font-family:CMSS10;-inkscape-font-specification:CMSS10;writing-mode:lr-tb;fill:#000000;fill-opacity:1;fill-rule:nonzero;stroke:none"
                     transform="matrix(1,0,0,-1,113.923,3.934)"><tspan
                       id="tspan116"
                       y="0"
                       x="0 5.3967404 10.656993 15.084373 19.872398 25.570009 29.997389 34.785416 39.212795 44.36047">Localcache</tspan></text>
<g
                     transform="translate(113.923,3.934)"
                     id="g120" /></g></g><g
                 transform="translate(-81.858,108.52)"
                 id="g122" /></g></g><g
             id="g124"><g
               id="g126"><path
                 id="path128"
                 style="fill:none;stroke:#000000;stroke-width:0.3985;stroke-linecap:butt;stroke-linejoin:miter;stroke-miterlimit:10;stroke-dasharray:2.98883, 2.98883;stroke-dashoffset:0;stroke-opacity:1"
                 d="m -31.86661,-112.25572 h 190.0287 V 38.46739 h -190.0287 z" /></g><g
               transform="translate(-17.693,-36.894)"
               id="g130"><g
                 transform="translate(80.84)"
                 id="g132"><g
                   transform="translate(-80.84)"
                   id="g134" /></g><g
                 transform="translate(17.693,36.894)"
                 id="g136" /></g></g><g
             id="g138"><g
               transform="translate(23.338,44.123)"
               id="g140"><g
                 id="g142"><g
                   transform="translate(-55.403,-156.577)"
                   id="g144"><text
                     id="text148"
                     style="font-variant:normal;font-weight:normal;font-size:9.96259975px;font-family:CMSS10;-inkscape-font-specification:CMSS10;writing-mode:lr-tb;fill:#000000;fill-opacity:1;fill-rule:nonzero;stroke:none"
                     transform="matrix(1,0,0,-1,55.403,156.577)"><tspan
                       id="tspan146"
                       y="0"
                       x="0 7.1949897 11.622369 16.216124 20.643503 23.023569 28.004869 33.431496 37.858875 44.580643 53.297916 58.085941 62.513321 67.660995 70.041061 75.188736">DeveloperMachine</tspan></text>
<g
                     transform="translate(55.403,156.577)"
                     id="g150" /></g></g><g
                 transform="translate(-23.338,-44.123)"
                 id="g152" /></g></g><g
             id="g154"><path
               id="path156"
               style="fill:none;stroke:#000000;stroke-width:0.3985;stroke-linecap:butt;stroke-linejoin:miter;stroke-miterlimit:10;stroke-dasharray:none;stroke-opacity:1"
               d="m 231.32295,13.16763 c -0.97149,3.62558 -4.80325,6.56525 -8.55675,6.56525 -3.75347,0 -7.58523,-2.93967 -8.55673,-6.56525 -1.85136,2.6473 -5.81473,3.89945 -8.85098,2.79636 -3.03627,-1.10304 -5.27353,-4.60765 -4.99393,-7.82596 -2.02412,0.65837 -4.60594,-0.25526 -5.76577,-2.04001 -1.15984,-1.78476 -0.94614,-4.5155 0.4776,-6.09778 -1.42374,-1.58224 -1.63755,-4.31254 -0.47771,-6.0973 1.15983,-1.78474 3.74176,-2.69882 5.76588,-2.04047 -0.2796,-3.21829 1.95629,-6.72215 4.99254,-7.82519 3.03626,-1.10309 7.00101,0.14832 8.85237,2.79561 0.9715,-3.62559 4.80326,-6.56525 8.55673,-6.56525 3.7535,0 7.58526,2.93966 8.55675,6.56525 1.85135,-2.64729 5.81473,-3.89945 8.85098,-2.79636 3.03626,1.10304 5.27353,4.60765 4.99393,7.82594 2.02413,-0.65835 4.60594,0.25528 5.76578,2.04003 1.15984,1.78476 0.94614,4.5155 -0.4776,6.09774 1.42374,1.58228 1.63754,4.31258 0.47771,6.09734 -1.15984,1.78474 -3.74176,2.69882 -5.76589,2.04045 0.2796,3.21831 -1.95628,6.72217 -4.99254,7.82521 -3.03627,1.10309 -7.00102,-0.14831 -8.85237,-2.79561 z" /><g
               transform="translate(206.505,-3.459)"
               id="g158"><g
                 id="g160"><g
                   transform="translate(-238.57,-108.995)"
                   id="g162"><text
                     id="text166"
                     style="font-variant:normal;font-weight:normal;font-size:9.96259975px;font-family:CMSS10;-inkscape-font-specification:CMSS10;writing-mode:lr-tb;fill:#000000;fill-opacity:1;fill-rule:nonzero;stroke:none"
                     transform="matrix(1,0,0,-1,238.57,108.995)"><tspan
                       id="tspan164"
                       y="0"
                       x="0 2.7676103 7.9152856 11.51278 15.94016 19.344381 24.492056 28.919436">Internet</tspan></text>
<g
                     transform="translate(238.57,108.995)"
                     id="g168" /></g></g><g
                 transform="translate(-206.505,3.459)"
                 id="g170" /></g></g><g
             id="g172"><g
               transform="translate(179.91,25.388)"
               id="g174"><g
                 id="g176"><g
                   transform="translate(-211.975,-137.842)"
                   id="g178"><text
                     id="text182"
                     style="font-variant:normal;font-weight:normal;font-size:9.96259975px;font-family:CMSS10;-inkscape-font-specification:CMSS10;writing-mode:lr-tb;fill:#000000;fill-opacity:1;fill-rule:nonzero;stroke:none"
                     transform="matrix(1,0,0,-1,211.975,137.842)"><tspan
                       id="tspan180"
                       y="0"
                       x="0 3.4042203 7.8315997 11.650265 16.631565 19.011629 23.605385 31.350309 36.497986 40.925365 46.351994 50.779373 55.927048 61.074722 65.502106 70.64978 75.077156 77.457222 81.884605">resolvedependencies</tspan></text>
<g
                     transform="translate(211.975,137.842)"
                     id="g184" /></g></g><g
                 transform="translate(-179.91,-25.388)"
                 id="g186" /></g></g><g
             id="g188"><g
               transform="translate(184.767,-30.37)"
               id="g190"><g
                 id="g192"><g
                   transform="translate(-216.832,-82.084)"
                   id="g194"><text
                     id="text198"
                     style="font-variant:normal;font-weight:normal;font-size:9.96259975px;font-family:CMSS10;-inkscape-font-specification:CMSS10;writing-mode:lr-tb;fill:#000000;fill-opacity:1;fill-rule:nonzero;stroke:none"
                     transform="matrix(1,0,0,-1,216.832,82.084)"><tspan
                       id="tspan196"
                       y="0"
                       x="0 5.1476755 9.8500223 16.657467 21.805143 24.185207 29.166508 33.954533 42.419754 46.938789 50.34301 53.940506 56.320572 59.365139 64.153168 68.580544 72.17804">downloadartifacts</tspan></text>
<g
                     transform="translate(216.832,82.084)"
                     id="g200" /></g></g><g
                 transform="translate(-184.767,30.37)"
                 id="g202" /></g></g><g
             id="g204"><g
               id="g206" /><path
               id="path208"
               style="fill:none;stroke:#000000;stroke-width:0.3985;stroke-linecap:butt;stroke-linejoin:miter;stroke-miterlimit:10;stroke-dasharray:none;stroke-opacity:1"
               d="m 307.61221,-9.67213 c 0,-3.39391 11.00496,-6.14516 24.58068,-6.14516 13.5757,0 24.58065,2.75125 24.58065,6.14516 V 19.103 c 0,3.39392 -11.00495,6.14515 -24.58065,6.14515 -13.57572,0 -24.58068,-2.75123 -24.58068,-6.14515 z m 0,28.77513 c 0,-3.39392 11.00496,-6.14516 24.58068,-6.14516 13.5757,0 24.58065,2.75124 24.58065,6.14516" /><g
               transform="translate(310.929,2.519)"
               id="g210"><g
                 transform="translate(7.423)"
                 id="g212"><g
                   transform="translate(-350.417,-114.973)"
                   id="g214"><text
                     id="text220"
                     style="font-variant:normal;font-weight:normal;font-size:9.96259975px;font-family:CMSS10;-inkscape-font-specification:CMSS10;writing-mode:lr-tb;fill:#000000;fill-opacity:1;fill-rule:nonzero;stroke:none"
                     transform="matrix(1,0,0,-1,350.417,114.973)"><tspan
                       id="tspan216"
                       y="0"
                       x="0 8.7172747 13.505301 18.099056 22.526434">Maven</tspan><tspan
                       id="tspan218"
                       y="11.955"
                       x="-1.2180001 5.1471052 9.5744848 14.72216 18.319654 21.723875 26.5119">Central</tspan></text>
<g
                     transform="translate(342.994,114.973)"
                     id="g222" /></g></g><g
                 transform="translate(-310.929,-2.519)"
                 id="g224" /></g></g><path
             id="path226"
             style="fill:none;stroke:#000000;stroke-width:0.3985;stroke-linecap:butt;stroke-linejoin:miter;stroke-miterlimit:10;stroke-dasharray:none;stroke-opacity:1"
             d="M 68.51825,0 H 18.68947" /><g
             transform="rotate(180,9.344735,0)"
             id="g228"><g
               id="g230"><path
                 id="path232"
                 style="fill:#000000;fill-opacity:1;fill-rule:nonzero;stroke:#000000;stroke-width:0.3985;stroke-linecap:butt;stroke-linejoin:round;stroke-miterlimit:10;stroke-dasharray:none;stroke-opacity:1"
                 d="m 0.797,0 c -0.99625,0.19925 -1.99251,0.59775 -3.18802,1.29512 1.19551,-0.89662 1.19551,-1.69362 0,-2.59024 C -1.19551,-0.59775 -0.19925,-0.19925 0.797,0 Z" /></g></g><g
             id="g234"><g
               transform="translate(14.759,27.43)"
               id="g236"><g
                 transform="translate(11.272)"
                 id="g238"><g
                   transform="translate(-58.096,-139.884)"
                   id="g240"><text
                     id="text248"
                     style="font-variant:normal;font-weight:normal;font-size:9.96259975px;font-family:CMSS10;-inkscape-font-specification:CMSS10;writing-mode:lr-tb;fill:#000000;fill-opacity:1;fill-rule:nonzero;stroke:none"
                     transform="matrix(1,0,0,-1,58.096,139.884)"><tspan
                       id="tspan242"
                       y="0"
                       x="0 4.4273796 9.0211344 13.80916 16.189224 21.336901 26.124926 29.722422">evaluate</tspan><tspan
                       id="tspan244"
                       y="11.955"
                       x="-7.085 -1.9373245 2.4900548 7.9166832 12.344063 17.491737 22.639414 27.066793 32.21447 36.64185">dependency</tspan><tspan
                       id="tspan246"
                       y="23.910999"
                       x="-4.1100001 1.0376754 5.465055 10.806005 15.95368 18.333746 21.93124 24.311306 29.292604 34.440281">defnitions</tspan></text>
<g
                     transform="translate(46.824,139.884)"
                     id="g250" /></g></g><g
                 transform="translate(-14.759,-27.43)"
                 id="g252" /></g></g><path
             id="path254"
             style="fill:none;stroke:#000000;stroke-width:0.3985;stroke-linecap:butt;stroke-linejoin:miter;stroke-miterlimit:10;stroke-dasharray:none;stroke-opacity:1"
             d="M 99.0491,-19.79398 V -69.62274" /><g
             transform="rotate(-90,14.71318,-84.33592)"
             id="g256"><g
               id="g258"><path
                 id="path260"
                 style="fill:#000000;fill-opacity:1;fill-rule:nonzero;stroke:#000000;stroke-width:0.3985;stroke-linecap:butt;stroke-linejoin:round;stroke-miterlimit:10;stroke-dasharray:none;stroke-opacity:1"
                 d="m 0.797,0 c -0.99625,0.19925 -1.99251,0.59775 -3.18802,1.29512 1.19551,-0.89662 1.19551,-1.69362 0,-2.59024 C -1.19551,-0.59775 -0.19925,-0.19925 0.797,0 Z" /></g></g><g
             id="g262"><g
               transform="translate(50.174,-42.075)"
               id="g264"><g
                 transform="translate(18.37)"
                 id="g266"><g
                   transform="translate(-100.609,-70.379)"
                   id="g268"><text
                     id="text274"
                     style="font-variant:normal;font-weight:normal;font-size:9.96259975px;font-family:CMSS10;-inkscape-font-specification:CMSS10;writing-mode:lr-tb;fill:#000000;fill-opacity:1;fill-rule:nonzero;stroke:none"
                     transform="matrix(1,0,0,-1,100.609,70.379)"><tspan
                       id="tspan270"
                       y="0"
                       x="0 3.8186646 7.4161596 12.118506 15.522727">store</tspan><tspan
                       id="tspan272"
                       y="11.955"
                       x="-6.8080001 -2.2989273 1.1052932 4.7027879 7.0828533 10.127423 14.915449 19.342829 22.940323">artifacts</tspan></text>
<g
                     transform="translate(82.239,70.379)"
                     id="g276" /></g></g><g
                 transform="translate(-50.174,42.075)"
                 id="g278" /></g></g><path
             id="path280"
             style="fill:none;stroke:#000000;stroke-width:0.3985;stroke-linecap:butt;stroke-linejoin:miter;stroke-miterlimit:10;stroke-dasharray:none;stroke-opacity:1"
             d="m 113.45784,-70.619 v 49.82876" /><g
             transform="rotate(90,67.12404,46.3338)"
             id="g282"><g
               id="g284"><path
                 id="path286"
                 style="fill:#000000;fill-opacity:1;fill-rule:nonzero;stroke:#000000;stroke-width:0.3985;stroke-linecap:butt;stroke-linejoin:round;stroke-miterlimit:10;stroke-dasharray:none;stroke-opacity:1"
                 d="m 0.797,0 c -0.99625,0.19925 -1.99251,0.59775 -3.18802,1.29512 1.19551,-0.89662 1.19551,-1.69362 0,-2.59024 C -1.19551,-0.59775 -0.19925,-0.19925 0.797,0 Z" /></g></g><g
             id="g288"><g
               transform="translate(105.638,-41.443)"
               id="g290"><g
                 transform="translate(17.733)"
                 id="g292"><g
                   transform="translate(-155.436,-71.011)"
                   id="g294"><text
                     id="text300"
                     style="font-variant:normal;font-weight:normal;font-size:9.96259975px;font-family:CMSS10;-inkscape-font-specification:CMSS10;writing-mode:lr-tb;fill:#000000;fill-opacity:1;fill-rule:nonzero;stroke:none"
                     transform="matrix(1,0,0,-1,155.436,71.011)"><tspan
                       id="tspan296"
                       y="0"
                       x="0 3.4042203 7.8315997 12.979276 16.797939">reuse</tspan><tspan
                       id="tspan298"
                       y="11.955"
                       x="-6.171 -1.6619272 1.7422932 5.339788 7.7198534 10.764423 15.552449 19.979828 23.577324">artifacts</tspan></text>
<g
                     transform="translate(137.703,71.011)"
                     id="g302" /></g></g><g
                 transform="translate(-105.638,41.443)"
                 id="g304" /></g></g><path
             id="path306"
             style="fill:none;stroke:#000000;stroke-width:0.3985;stroke-linecap:butt;stroke-linejoin:miter;stroke-miterlimit:10;stroke-dasharray:none;stroke-opacity:1"
             d="m 138.1201,11.59842 h 61.93367" /><g
             transform="translate(200.05377,11.59842)"
             id="g308"><g
               id="g310"><path
                 id="path312"
                 style="fill:#000000;fill-opacity:1;fill-rule:nonzero;stroke:#000000;stroke-width:0.3985;stroke-linecap:butt;stroke-linejoin:round;stroke-miterlimit:10;stroke-dasharray:none;stroke-opacity:1"
                 d="m 0.797,0 c -0.99625,0.19925 -1.99251,0.59775 -3.18802,1.29512 1.19551,-0.89662 1.19551,-1.69362 0,-2.59024 C -1.19551,-0.59775 -0.19925,-0.19925 0.797,0 Z" /></g></g><g
             id="g314" /><path
             id="path316"
             style="fill:none;stroke:#000000;stroke-width:0.3985;stroke-linecap:butt;stroke-linejoin:miter;stroke-miterlimit:10;stroke-dasharray:none;stroke-opacity:1"
             d="M 201.05003,-11.59842 H 139.11636" /><g
             transform="rotate(180,69.55818,-5.79921)"
             id="g318"><g
               id="g320"><path
                 id="path322"
                 style="fill:#000000;fill-opacity:1;fill-rule:nonzero;stroke:#000000;stroke-width:0.3985;stroke-linecap:butt;stroke-linejoin:round;stroke-miterlimit:10;stroke-dasharray:none;stroke-opacity:1"
                 d="m 0.797,0 c -0.99625,0.19925 -1.99251,0.59775 -3.18802,1.29512 1.19551,-0.89662 1.19551,-1.69362 0,-2.59024 C -1.19551,-0.59775 -0.19925,-0.19925 0.797,0 Z" /></g></g><path
             id="path324"
             style="fill:none;stroke:#000000;stroke-width:0.3985;stroke-linecap:butt;stroke-linejoin:miter;stroke-miterlimit:10;stroke-dasharray:none;stroke-opacity:1"
             d="m 245.21448,10.46751 h 61.20158" /><g
             transform="translate(306.41606,10.46751)"
             id="g326"><g
               id="g328"><path
                 id="path330"
                 style="fill:#000000;fill-opacity:1;fill-rule:nonzero;stroke:#000000;stroke-width:0.3985;stroke-linecap:butt;stroke-linejoin:round;stroke-miterlimit:10;stroke-dasharray:none;stroke-opacity:1"
                 d="m 0.797,0 c -0.99625,0.19925 -1.99251,0.59775 -3.18802,1.29512 1.19551,-0.89662 1.19551,-1.69362 0,-2.59024 C -1.19551,-0.59775 -0.19925,-0.19925 0.797,0 Z" /></g></g><path
             id="path332"
             style="fill:none;stroke:#000000;stroke-width:0.3985;stroke-linecap:butt;stroke-linejoin:miter;stroke-miterlimit:10;stroke-dasharray:none;stroke-opacity:1"
             d="M 307.41232,-10.46655 H 246.20958" /><g
             transform="rotate(180,123.10479,-5.233275)"
             id="g334"><g
               id="g336"><path
                 id="path338"
                 style="fill:#000000;fill-opacity:1;fill-rule:nonzero;stroke:#000000;stroke-width:0.3985;stroke-linecap:butt;stroke-linejoin:round;stroke-miterlimit:10;stroke-dasharray:none;stroke-opacity:1"
                 d="m 0.797,0 c -0.99625,0.19925 -1.99251,0.59775 -3.18802,1.29512 1.19551,-0.89662 1.19551,-1.69362 0,-2.59024 C -1.19551,-0.59775 -0.19925,-0.19925 0.797,0 Z" /></g></g></g></g></g></g></svg>