<?xml version="1.0" encoding="UTF-8" standalone="no"?>
<svg
   xmlns:dc="http://purl.org/dc/elements/1.1/"
   xmlns:cc="http://creativecommons.org/ns#"
   xmlns:rdf="http://www.w3.org/1999/02/22-rdf-syntax-ns#"
   xmlns:svg="http://www.w3.org/2000/svg"
   xmlns="http://www.w3.org/2000/svg"
   viewBox="0 0 311.74799 188.31467"
   height="188.31467"
   width="311.74799"
   xml:space="preserve"
   id="svg2"
   version="1.1"><metadata
     id="metadata8"><rdf:RDF><cc:Work
         rdf:about=""><dc:format>image/svg+xml</dc:format><dc:type
           rdf:resource="http://purl.org/dc/dcmitype/StillImage" /><dc:title></dc:title></cc:Work></rdf:RDF></metadata><defs
     id="defs6" /><g
     transform="matrix(1.3333333,0,0,-1.3333333,0,188.31467)"
     id="g10"><g
       transform="translate(116.906,70.618)"
       id="g12"><g
         id="g14"><g
           id="g16" /><g
           id="g18"><g
             id="g20"><path
               id="path22"
               style="fill:none;stroke:#000000;stroke-width:0.3985;stroke-linecap:butt;stroke-linejoin:miter;stroke-miterlimit:10;stroke-dasharray:none;stroke-opacity:1"
               d="m -24.77992,-28.54605 v 57.0921 h 42.08777 l 7.47207,-7.47208 v -49.62002 z m 42.08777,57.0921 v -7.47208 h 7.47207 -7.47207" /><g
               transform="translate(-21.26,8.496)"
               id="g24"><g
                 transform="translate(6.662)"
                 id="g26"><g
                   transform="translate(-102.308,-79.114)"
                   id="g28"><text
                     id="text36"
                     style="font-variant:normal;font-weight:normal;font-size:9.96259975px;font-family:CMSS10;-inkscape-font-specification:CMSS10;writing-mode:lr-tb;fill:#000000;fill-opacity:1;fill-rule:nonzero;stroke:none"
                     transform="matrix(1,0,0,-1,102.308,79.114)"><tspan
                       id="tspan30"
                       y="0"
                       x="0 5.5352206 9.9625998 13.36682 17.960575 20.340641 24.768021">Service</tspan><tspan
                       id="tspan32"
                       y="11.955"
                       x="-2.4630001 4.7319899 9.1593695 12.978034 17.405413 20.809633 23.189699 28.337374">Descrip-</tspan><tspan
                       id="tspan34"
                       y="23.91"
                       x="6.5440001 10.141495 12.52156 17.502859">tion</tspan></text>
<g
                     transform="translate(95.646,79.114)"
                     id="g38" /></g></g><g
                 transform="translate(21.26,-8.496)"
                 id="g40" /></g></g><g
             id="g42"><path
               id="path44"
               style="fill:none;stroke:#000000;stroke-width:0.3985;stroke-linecap:butt;stroke-linejoin:miter;stroke-miterlimit:10;stroke-dasharray:none;stroke-opacity:1"
               d="M -31.66737,42.96748 H 31.66738 V 70.41972 H -31.66737 Z" /><g
               transform="translate(-28.347,60.18)"
               id="g46"><g
                 transform="translate(13.749)"
                 id="g48"><g
                   transform="translate(-102.308,-130.798)"
                   id="g50"><text
                     id="text56"
                     style="font-variant:normal;font-weight:normal;font-size:9.96259975px;font-family:CMSS10;-inkscape-font-specification:CMSS10;writing-mode:lr-tb;fill:#000000;fill-opacity:1;fill-rule:nonzero;stroke:none"
                     transform="matrix(1,0,0,-1,102.308,130.798)"><tspan
                       id="tspan52"
                       y="0"
                       x="0 5.5352206 9.9625998 13.36682 17.960575 20.340641 24.768021">Service</tspan><tspan
                       id="tspan54"
                       y="11.955"
                       x="-2.221 4.2128472 8.6402264 13.621527 16.001591 19.820257 23.417751 26.821972">Registry</tspan></text>
<g
                     transform="translate(88.559,130.798)"
                     id="g58" /></g></g><g
                 transform="translate(28.347,-60.18)"
                 id="g60" /></g></g><g
             id="g62"><path
               id="path64"
               style="fill:none;stroke:#000000;stroke-width:0.3985;stroke-linecap:butt;stroke-linejoin:miter;stroke-miterlimit:10;stroke-dasharray:none;stroke-opacity:1"
               d="m -116.7078,-69.45113 h 63.33475 v 25.51503 h -63.33475 z" /><g
               transform="translate(-113.386,-54.174)"
               id="g66"><g
                 transform="translate(13.748)"
                 id="g68"><g
                   transform="translate(-17.268,-16.444)"
                   id="g70"><text
                     id="text76"
                     style="font-variant:normal;font-weight:normal;font-size:9.96259975px;font-family:CMSS10;-inkscape-font-specification:CMSS10;writing-mode:lr-tb;fill:#000000;fill-opacity:1;fill-rule:nonzero;stroke:none"
                     transform="matrix(1,0,0,-1,17.268,16.444)"><tspan
                       id="tspan72"
                       y="0"
                       x="0 5.5352206 9.9625998 13.36682 17.960575 20.340641 24.768021">Service</tspan><tspan
                       id="tspan74"
                       y="11.956"
                       x="-2.753 3.6121051 7.0163255 11.997625 16.591381 18.971445 24.119122 28.546501">Provider</tspan></text>
<g
                     transform="translate(3.52,16.444)"
                     id="g78" /></g></g><g
                 transform="translate(113.386,54.174)"
                 id="g80" /></g></g><g
             id="g82"><path
               id="path84"
               style="fill:none;stroke:#000000;stroke-width:0.3985;stroke-linecap:butt;stroke-linejoin:miter;stroke-miterlimit:10;stroke-dasharray:none;stroke-opacity:1"
               d="M 53.37305,-70.41974 H 116.7078 V -42.9675 H 53.37305 Z" /><g
               transform="translate(56.692,-53.206)"
               id="g86"><g
                 transform="translate(13.749)"
                 id="g88"><g
                   transform="translate(-187.347,-17.412)"
                   id="g90"><text
                     id="text96"
                     style="font-variant:normal;font-weight:normal;font-size:9.96259975px;font-family:CMSS10;-inkscape-font-specification:CMSS10;writing-mode:lr-tb;fill:#000000;fill-opacity:1;fill-rule:nonzero;stroke:none"
                     transform="matrix(1,0,0,-1,187.347,17.412)"><tspan
                       id="tspan92"
                       y="0"
                       x="0 5.5352206 9.9625998 13.36682 17.960575 20.340641 24.768021">Service</tspan><tspan
                       id="tspan94"
                       y="11.955"
                       x="-5.8189998 0.61484706 5.0422263 10.189902 15.337578 19.764957 23.583622 27.181116 31.608496">Requester</tspan></text>
<g
                     transform="translate(173.598,17.412)"
                     id="g98" /></g></g><g
                 transform="translate(-56.692,53.206)"
                 id="g100" /></g></g><path
             id="path102"
             style="fill:none;stroke:#000000;stroke-width:0.3985;stroke-linecap:butt;stroke-linejoin:miter;stroke-miterlimit:10;stroke-dasharray:none;stroke-opacity:1"
             d="m -83.48293,-43.73685 c 0.50073,39.456 17.19611,67.54933 50.74706,86.35654" /><g
             transform="matrix(0.87251,0.48907,-0.48907,0.87251,-32.73587,42.61967)"
             id="g104"><g
               id="g106"><path
                 id="path108"
                 style="fill:#000000;fill-opacity:1;fill-rule:nonzero;stroke:#000000;stroke-width:0.3985;stroke-linecap:butt;stroke-linejoin:round;stroke-miterlimit:10;stroke-dasharray:none;stroke-opacity:1"
                 d="m 0.797,0 c -0.99625,0.19925 -1.99251,0.59775 -3.18802,1.29512 1.19551,-0.89662 1.19551,-1.69362 0,-2.59024 C -1.19551,-0.59775 -0.19925,-0.19925 0.797,0 Z" /></g></g><g
             id="g110"><g
               transform="translate(-99.76,10.765)"
               id="g112"><g
                 id="g114"><g
                   transform="translate(-17.146,-81.383)"
                   id="g116"><text
                     id="text120"
                     style="font-variant:normal;font-weight:normal;font-size:9.96259975px;font-family:CMSS10;-inkscape-font-specification:CMSS10;writing-mode:lr-tb;fill:#000000;fill-opacity:1;fill-rule:nonzero;stroke:none"
                     transform="matrix(1,0,0,-1,17.146,81.383)"><tspan
                       id="tspan118"
                       y="0"
                       x="0 6.3651052 11.51278 16.660456 19.040522 21.420586 25.23925">Publish</tspan></text>
<g
                     transform="translate(17.146,81.383)"
                     id="g122" /></g></g><g
                 transform="translate(99.76,-10.765)"
                 id="g124" /></g></g><path
             id="path126"
             style="fill:none;stroke:#000000;stroke-width:0.3985;stroke-linecap:butt;stroke-linejoin:miter;stroke-miterlimit:10;stroke-dasharray:none;stroke-opacity:1"
             d="M 83.36647,-42.76823 C 82.71643,-3.66287 66.05782,24.11711 32.73956,42.62209" /><g
             transform="matrix(-0.87622,0.48668,-0.48668,-0.87622,32.73956,42.62207)"
             id="g128"><g
               id="g130"><path
                 id="path132"
                 style="fill:#000000;fill-opacity:1;fill-rule:nonzero;stroke:#000000;stroke-width:0.3985;stroke-linecap:butt;stroke-linejoin:round;stroke-miterlimit:10;stroke-dasharray:none;stroke-opacity:1"
                 d="m 0.797,0 c -0.99625,0.19925 -1.99251,0.59775 -3.18802,1.29512 1.19551,-0.89662 1.19551,-1.69362 0,-2.59024 C -1.19551,-0.59775 -0.19925,-0.19925 0.797,0 Z" /></g></g><g
             id="g134"><g
               transform="translate(69.523,11.232)"
               id="g136"><g
                 id="g138"><g
                   transform="translate(-186.429,-81.85)"
                   id="g140"><text
                     id="text144"
                     style="font-variant:normal;font-weight:normal;font-size:9.96259975px;font-family:CMSS10;-inkscape-font-specification:CMSS10;writing-mode:lr-tb;fill:#000000;fill-opacity:1;fill-rule:nonzero;stroke:none"
                     transform="matrix(1,0,0,-1,186.429,81.85)"><tspan
                       id="tspan142"
                       y="0"
                       x="0 5.6727042 8.0527697 13.200445">Find</tspan></text>
<g
                     transform="translate(186.429,81.85)"
                     id="g146" /></g></g><g
                 transform="translate(-69.523,-11.232)"
                 id="g148" /></g></g><path
             id="path150"
             style="fill:none;stroke:#000000;stroke-width:0.3985;stroke-linecap:butt;stroke-linejoin:miter;stroke-miterlimit:10;stroke-dasharray:none;stroke-opacity:1"
             d="M -52.17754,-56.69362 H 52.17754" /><g
             transform="rotate(180,-26.08877,-28.34681)"
             id="g152"><g
               id="g154"><path
                 id="path156"
                 style="fill:#000000;fill-opacity:1;fill-rule:nonzero;stroke:#000000;stroke-width:0.3985;stroke-linecap:butt;stroke-linejoin:round;stroke-miterlimit:10;stroke-dasharray:none;stroke-opacity:1"
                 d="m 0.797,0 c -0.99625,0.19925 -1.99251,0.59775 -3.18802,1.29512 1.19551,-0.89662 1.19551,-1.69362 0,-2.59024 C -1.19551,-0.59775 -0.19925,-0.19925 0.797,0 Z" /></g></g><g
             transform="translate(52.17754,-56.69362)"
             id="g158"><g
               id="g160"><path
                 id="path162"
                 style="fill:#000000;fill-opacity:1;fill-rule:nonzero;stroke:#000000;stroke-width:0.3985;stroke-linecap:butt;stroke-linejoin:round;stroke-miterlimit:10;stroke-dasharray:none;stroke-opacity:1"
                 d="m 0.797,0 c -0.99625,0.19925 -1.99251,0.59775 -3.18802,1.29512 1.19551,-0.89662 1.19551,-1.69362 0,-2.59024 C -1.19551,-0.59775 -0.19925,-0.19925 0.797,0 Z" /></g></g><g
             id="g164"><g
               transform="translate(-16.079,-67.131)"
               id="g166"><g
                 id="g168"><g
                   transform="translate(-100.827,-3.487)"
                   id="g170"><text
                     id="text174"
                     style="font-variant:normal;font-weight:normal;font-size:9.96259975px;font-family:CMSS10;-inkscape-font-specification:CMSS10;writing-mode:lr-tb;fill:#000000;fill-opacity:1;fill-rule:nonzero;stroke:none"
                     transform="matrix(1,0,0,-1,100.827,3.487)"><tspan
                       id="tspan172"
                       y="0"
                       x="0 2.7676103 7.9152856 11.51278 15.94016 19.344381 24.132406 28.559786">Interact</tspan></text>
<g
                     transform="translate(100.827,3.487)"
                     id="g176" /></g></g><g
                 transform="translate(16.079,67.131)"
                 id="g178" /></g></g></g></g></g></g></svg>