<?xml version="1.0" encoding="UTF-8" standalone="no"?>
<svg
   xmlns:dc="http://purl.org/dc/elements/1.1/"
   xmlns:cc="http://creativecommons.org/ns#"
   xmlns:rdf="http://www.w3.org/1999/02/22-rdf-syntax-ns#"
   xmlns:svg="http://www.w3.org/2000/svg"
   xmlns="http://www.w3.org/2000/svg"
   viewBox="0 0 362.12534 186.14667"
   height="186.14667"
   width="362.12534"
   xml:space="preserve"
   id="svg2"
   version="1.1"><metadata
     id="metadata8"><rdf:RDF><cc:Work
         rdf:about=""><dc:format>image/svg+xml</dc:format><dc:type
           rdf:resource="http://purl.org/dc/dcmitype/StillImage" /><dc:title></dc:title></cc:Work></rdf:RDF></metadata><defs
     id="defs6" /><g
     transform="matrix(1.3333333,0,0,-1.3333333,0,186.14667)"
     id="g10"><g
       transform="translate(90.956,134.715)"
       id="g12"><g
         id="g14"><g
           id="g16" /><g
           id="g18"><g
             id="g20"><path
               id="path22"
               style="fill:none;stroke:#000000;stroke-width:0.3985;stroke-linecap:butt;stroke-linejoin:miter;stroke-miterlimit:10;stroke-dasharray:none;stroke-opacity:1"
               d="M 4.6963,0 C 4.6963,2.59372 2.59372,4.6963 0,4.6963 -2.59372,4.6963 -4.6963,2.59372 -4.6963,0 c 0,-2.59372 2.10258,-4.6963 4.6963,-4.6963 2.59372,0 4.6963,2.10258 4.6963,4.6963 z" /><g
               id="g24"><g
                 id="g26" /></g></g><g
             id="g28"><path
               id="path30"
               style="fill:none;stroke:#000000;stroke-width:0.3985;stroke-linecap:butt;stroke-linejoin:miter;stroke-miterlimit:10;stroke-dasharray:none;stroke-opacity:1"
               d="m -31.66737,-47.00133 h 63.33475 v 13.55971 h -63.33475 z" /><g
               transform="translate(-28.346,-43.68)"
               id="g32"><g
                 transform="translate(11.119)"
                 id="g34"><g
                   transform="translate(-73.729,-91.035)"
                   id="g36"><text
                     id="text40"
                     style="font-variant:normal;font-weight:normal;font-size:9.96259975px;font-family:CMSS10;-inkscape-font-specification:CMSS10;writing-mode:lr-tb;fill:#000000;fill-opacity:1;fill-rule:nonzero;stroke:none"
                     transform="matrix(1,0,0,-1,73.729,91.035)"><tspan
                       id="tspan38"
                       y="0"
                       x="0 2.7676103 7.9152856 11.733951 15.331445 20.119471 22.499537 24.879601 29.30698">Installed</tspan></text>
<g
                     transform="translate(62.61,91.035)"
                     id="g42" /></g></g><g
                 transform="translate(28.346,43.68)"
                 id="g44" /></g></g><g
             id="g46"><path
               id="path48"
               style="fill:none;stroke:#000000;stroke-width:0.3985;stroke-linecap:butt;stroke-linejoin:miter;stroke-miterlimit:10;stroke-dasharray:none;stroke-opacity:1"
               d="m -31.66737,-89.30635 h 63.33475 v 13.55971 h -63.33475 z" /><g
               transform="translate(-28.346,-85.985)"
               id="g50"><g
                 transform="translate(10.24)"
                 id="g52"><g
                   transform="translate(-72.85,-48.73)"
                   id="g54"><text
                     id="text58"
                     style="font-variant:normal;font-weight:normal;font-size:9.96259975px;font-family:CMSS10;-inkscape-font-specification:CMSS10;writing-mode:lr-tb;fill:#000000;fill-opacity:1;fill-rule:nonzero;stroke:none"
                     transform="matrix(1,0,0,-1,72.85,48.73)"><tspan
                       id="tspan56"
                       y="0"
                       x="0 6.433847 10.861226 14.679891 19.661192 22.041256 26.635012 31.062391">Resolved</tspan></text>
<g
                     transform="translate(62.61,48.73)"
                     id="g60" /></g></g><g
                 transform="translate(28.346,85.985)"
                 id="g62" /></g></g><g
             id="g64"><path
               id="path66"
               style="fill:none;stroke:#000000;stroke-width:0.3985;stroke-linecap:butt;stroke-linejoin:miter;stroke-miterlimit:10;stroke-dasharray:none;stroke-opacity:1"
               d="m -31.66737,-131.61137 h 63.33475 v 13.55971 h -63.33475 z" /><g
               transform="translate(-28.346,-128.289)"
               id="g68"><g
                 transform="translate(5.314)"
                 id="g70"><g
                   transform="translate(-67.924,-6.426)"
                   id="g72"><text
                     id="text76"
                     style="font-variant:normal;font-weight:normal;font-size:9.96259975px;font-family:CMSS10;-inkscape-font-specification:CMSS10;writing-mode:lr-tb;fill:#000000;fill-opacity:1;fill-rule:nonzero;stroke:none"
                     transform="matrix(1,0,0,-1,67.924,6.426)"><tspan
                       id="tspan74"
                       y="0"
                       x="0 6.8492875 11.996963 14.377028 19.524704 23.343369 26.940863 31.728888 34.108955 36.489017 40.916397">Uninstalled</tspan></text>
<g
                     transform="translate(62.61,6.426)"
                     id="g78" /></g></g><g
                 transform="translate(28.346,128.289)"
                 id="g80" /></g></g><g
             id="g82"><path
               id="path84"
               style="fill:none;stroke:#000000;stroke-width:0.3985;stroke-linecap:butt;stroke-linejoin:miter;stroke-miterlimit:10;stroke-dasharray:none;stroke-opacity:1"
               d="m 117.10634,-47.96994 h 63.33475 v 15.49692 h -63.33475 z" /><g
               transform="translate(120.425,-42.712)"
               id="g86"><g
                 transform="translate(11.77)"
                 id="g88"><g
                   transform="translate(-223.151,-92.003)"
                   id="g90"><text
                     id="text94"
                     style="font-variant:normal;font-weight:normal;font-size:9.96259975px;font-family:CMSS10;-inkscape-font-specification:CMSS10;writing-mode:lr-tb;fill:#000000;fill-opacity:1;fill-rule:nonzero;stroke:none"
                     transform="matrix(1,0,0,-1,223.151,92.003)"><tspan
                       id="tspan92"
                       y="0"
                       x="0 5.5352206 9.1327152 13.641788 17.046009 20.643503 23.023569 28.171244">Starting</tspan></text>
<g
                     transform="translate(211.381,92.003)"
                     id="g96" /></g></g><g
                 transform="translate(-120.425,42.712)"
                 id="g98" /></g></g><g
             id="g100"><path
               id="path102"
               style="fill:none;stroke:#000000;stroke-width:0.3985;stroke-linecap:butt;stroke-linejoin:miter;stroke-miterlimit:10;stroke-dasharray:none;stroke-opacity:1"
               d="m 117.10634,-90.27496 h 63.33475 v 13.55971 h -63.33475 z" /><g
               transform="translate(120.425,-86.954)"
               id="g104"><g
                 transform="translate(15.312)"
                 id="g106"><g
                   transform="translate(-226.693,-47.761)"
                   id="g108"><text
                     id="text112"
                     style="font-variant:normal;font-weight:normal;font-size:9.96259975px;font-family:CMSS10;-inkscape-font-specification:CMSS10;writing-mode:lr-tb;fill:#000000;fill-opacity:1;fill-rule:nonzero;stroke:none"
                     transform="matrix(1,0,0,-1,226.693,47.761)"><tspan
                       id="tspan110"
                       y="0"
                       x="0 6.6420655 11.069445 14.66694 17.047005 21.64076">Active</tspan></text>
<g
                     transform="translate(211.381,47.761)"
                     id="g114" /></g></g><g
                 transform="translate(-120.425,86.954)"
                 id="g116" /></g></g><g
             id="g118"><path
               id="path120"
               style="fill:none;stroke:#000000;stroke-width:0.3985;stroke-linecap:butt;stroke-linejoin:miter;stroke-miterlimit:10;stroke-dasharray:none;stroke-opacity:1"
               d="m 117.10634,-134.51721 h 63.33475 v 15.49692 h -63.33475 z" /><g
               transform="translate(120.425,-129.258)"
               id="g122"><g
                 transform="translate(9.888)"
                 id="g124"><g
                   transform="translate(-221.269,-5.457)"
                   id="g126"><text
                     id="text130"
                     style="font-variant:normal;font-weight:normal;font-size:9.96259975px;font-family:CMSS10;-inkscape-font-specification:CMSS10;writing-mode:lr-tb;fill:#000000;fill-opacity:1;fill-rule:nonzero;stroke:none"
                     transform="matrix(1,0,0,-1,221.269,5.457)"><tspan
                       id="tspan128"
                       y="0"
                       x="0 5.5352206 9.1327152 14.114016 19.26169 24.409367 26.789431 31.937107">Stopping</tspan></text>
<g
                     transform="translate(211.381,5.457)"
                     id="g132" /></g></g><g
                 transform="translate(-120.425,129.258)"
                 id="g134" /></g></g><path
             id="path136"
             style="fill:none;stroke:#000000;stroke-width:0.3985;stroke-linecap:butt;stroke-linejoin:miter;stroke-miterlimit:10;stroke-dasharray:none;stroke-opacity:1"
             d="M 0,-4.89557 V -32.24611" /><g
             transform="rotate(-90,-16.123055,-16.123055)"
             id="g138"><g
               id="g140"><path
                 id="path142"
                 style="fill:#000000;fill-opacity:1;fill-rule:nonzero;stroke:#000000;stroke-width:0.3985;stroke-linecap:butt;stroke-linejoin:round;stroke-miterlimit:10;stroke-dasharray:none;stroke-opacity:1"
                 d="m 0.797,0 c -0.99625,0.19925 -1.99251,0.59775 -3.18802,1.29512 1.19551,-0.89662 1.19551,-1.69362 0,-2.59024 C -1.19551,-0.59775 -0.19925,-0.19925 0.797,0 Z" /></g></g><g
             id="g144"><g
               transform="translate(-24.657,-21.836)"
               id="g146"><g
                 id="g148"><g
                   transform="translate(-66.299,-112.879)"
                   id="g150"><text
                     id="text154"
                     style="font-variant:normal;font-weight:normal;font-size:7.97009993px;font-family:CMSS8;-inkscape-font-specification:CMSS8;writing-mode:lr-tb;fill:#000000;fill-opacity:1;fill-rule:nonzero;stroke:none"
                     transform="matrix(1,0,0,-1,66.299,112.879)"><tspan
                       id="tspan152"
                       y="0"
                       x="0 2.3519764 6.7243733 9.9705954 13.028723 17.096661 19.117083">Install</tspan></text>
<g
                     transform="translate(66.299,112.879)"
                     id="g156" /></g></g><g
                 transform="translate(24.657,21.836)"
                 id="g158" /></g></g><path
             id="path160"
             style="fill:none;stroke:#000000;stroke-width:0.3985;stroke-linecap:butt;stroke-linejoin:miter;stroke-miterlimit:10;stroke-dasharray:none;stroke-opacity:1"
             d="m 12.08818,-33.24237 v 14.1734 h 28.3468 v -21.26009 l -7.5721,0.02034" /><g
             transform="matrix(-1,0.00267,-0.00267,-1,32.86288,-40.30873)"
             id="g162"><g
               id="g164"><path
                 id="path166"
                 style="fill:#000000;fill-opacity:1;fill-rule:nonzero;stroke:#000000;stroke-width:0.3985;stroke-linecap:butt;stroke-linejoin:round;stroke-miterlimit:10;stroke-dasharray:none;stroke-opacity:1"
                 d="m 0.797,0 c -0.99625,0.19925 -1.99251,0.59775 -3.18802,1.29512 1.19551,-0.89662 1.19551,-1.69362 0,-2.59024 C -1.19551,-0.59775 -0.19925,-0.19925 0.797,0 Z" /></g></g><g
             id="g168"><g
               transform="translate(43.954,-27.734)"
               id="g170"><g
                 id="g172"><g
                   transform="translate(-134.91,-106.981)"
                   id="g174"><text
                     id="text180"
                     style="font-variant:normal;font-weight:normal;font-size:7.97009993px;font-family:CMSS8;-inkscape-font-specification:CMSS8;writing-mode:lr-tb;fill:#000000;fill-opacity:1;fill-rule:nonzero;stroke:none"
                     transform="matrix(1,0,0,-1,134.91,106.981)"><tspan
                       id="tspan176"
                       y="0"
                       x="0 5.8117971 10.423297 14.795693 18.863632 21.921761">Update</tspan><tspan
                       id="tspan178"
                       y="9.4650002"
                       x="0 5.4794436 9.2429247 11.830816 14.723166 18.486647 21.732868">Refresh</tspan></text>
<g
                     transform="translate(134.91,106.981)"
                     id="g182" /></g></g><g
                 transform="translate(-43.954,27.734)"
                 id="g184" /></g></g><path
             id="path186"
             style="fill:none;stroke:#000000;stroke-width:0.3985;stroke-linecap:butt;stroke-linejoin:miter;stroke-miterlimit:10;stroke-dasharray:none;stroke-opacity:1"
             d="m -31.86662,-40.22148 h -21.2601 v -84.61005 h 20.26384" /><g
             transform="translate(-32.86288,-124.83153)"
             id="g188"><g
               id="g190"><path
                 id="path192"
                 style="fill:#000000;fill-opacity:1;fill-rule:nonzero;stroke:#000000;stroke-width:0.3985;stroke-linecap:butt;stroke-linejoin:round;stroke-miterlimit:10;stroke-dasharray:none;stroke-opacity:1"
                 d="m 0.797,0 c -0.99625,0.19925 -1.99251,0.59775 -3.18802,1.29512 1.19551,-0.89662 1.19551,-1.69362 0,-2.59024 C -1.19551,-0.59775 -0.19925,-0.19925 0.797,0 Z" /></g></g><g
             id="g194"><g
               transform="translate(-87.636,-85.078)"
               id="g196"><g
                 id="g198"><g
                   transform="translate(-3.32,-49.637)"
                   id="g200"><text
                     id="text204"
                     style="font-variant:normal;font-weight:normal;font-size:7.97009993px;font-family:CMSS8;-inkscape-font-specification:CMSS8;writing-mode:lr-tb;fill:#000000;fill-opacity:1;fill-rule:nonzero;stroke:none"
                     transform="matrix(1,0,0,-1,3.32,49.637)"><tspan
                       id="tspan202"
                       y="0"
                       x="0 5.8117971 10.184194 12.204614 16.577011 19.823233 22.881361 26.949299 28.969719">Uninstall</tspan></text>
<g
                     transform="translate(3.32,49.637)"
                     id="g206" /></g></g><g
                 transform="translate(87.636,85.078)"
                 id="g208" /></g></g><path
             id="path210"
             style="fill:none;stroke:#000000;stroke-width:0.3985;stroke-linecap:butt;stroke-linejoin:miter;stroke-miterlimit:10;stroke-dasharray:none;stroke-opacity:1"
             d="M -4.02957,-47.20059 V -74.55113" /><g
             transform="rotate(-90,-39.29035,-35.26078)"
             id="g212"><g
               id="g214"><path
                 id="path216"
                 style="fill:#000000;fill-opacity:1;fill-rule:nonzero;stroke:#000000;stroke-width:0.3985;stroke-linecap:butt;stroke-linejoin:round;stroke-miterlimit:10;stroke-dasharray:none;stroke-opacity:1"
                 d="m 0.797,0 c -0.99625,0.19925 -1.99251,0.59775 -3.18802,1.29512 1.19551,-0.89662 1.19551,-1.69362 0,-2.59024 C -1.19551,-0.59775 -0.19925,-0.19925 0.797,0 Z" /></g></g><g
             id="g218"><g
               transform="translate(-33.959,-64.141)"
               id="g220"><g
                 id="g222"><g
                   transform="translate(-56.997,-70.574)"
                   id="g224"><text
                     id="text228"
                     style="font-variant:normal;font-weight:normal;font-size:7.97009993px;font-family:CMSS8;-inkscape-font-specification:CMSS8;writing-mode:lr-tb;fill:#000000;fill-opacity:1;fill-rule:nonzero;stroke:none"
                     transform="matrix(1,0,0,-1,56.997,70.574)"><tspan
                       id="tspan226"
                       y="0"
                       x="0 5.4794436 9.2429247 12.489146 16.723661 18.744081 22.646242">Resolve</tspan></text>
<g
                     transform="translate(56.997,70.574)"
                     id="g230" /></g></g><g
                 transform="translate(33.959,64.141)"
                 id="g232" /></g></g><path
             id="path234"
             style="fill:none;stroke:#000000;stroke-width:0.3985;stroke-linecap:butt;stroke-linejoin:miter;stroke-miterlimit:10;stroke-dasharray:none;stroke-opacity:1"
             d="m 2.54015,-75.5474 v 27.35055" /><g
             transform="rotate(90,25.3685,-22.82835)"
             id="g236"><g
               id="g238"><path
                 id="path240"
                 style="fill:#000000;fill-opacity:1;fill-rule:nonzero;stroke:#000000;stroke-width:0.3985;stroke-linecap:butt;stroke-linejoin:round;stroke-miterlimit:10;stroke-dasharray:none;stroke-opacity:1"
                 d="m 0.797,0 c -0.99625,0.19925 -1.99251,0.59775 -3.18802,1.29512 1.19551,-0.89662 1.19551,-1.69362 0,-2.59024 C -1.19551,-0.59775 -0.19925,-0.19925 0.797,0 Z" /></g></g><g
             id="g242"><g
               transform="translate(6.06,-58.634)"
               id="g244"><g
                 id="g246"><g
                   transform="translate(-97.016,-76.081)"
                   id="g248"><text
                     id="text254"
                     style="font-variant:normal;font-weight:normal;font-size:7.97009993px;font-family:CMSS8;-inkscape-font-specification:CMSS8;writing-mode:lr-tb;fill:#000000;fill-opacity:1;fill-rule:nonzero;stroke:none"
                     transform="matrix(1,0,0,-1,97.016,76.081)"><tspan
                       id="tspan250"
                       y="0"
                       x="0 5.4794436 9.2429247 11.830816 14.723166 18.486647 21.732868">Refresh</tspan><tspan
                       id="tspan252"
                       y="9.4639997"
                       x="0 5.8117971 10.423297 14.795693 18.863632 21.921761">Update</tspan></text>
<g
                     transform="translate(97.016,76.081)"
                     id="g256" /></g></g><g
                 transform="translate(-6.06,58.634)"
                 id="g258" /></g></g><path
             id="path260"
             style="fill:none;stroke:#000000;stroke-width:0.3985;stroke-linecap:butt;stroke-linejoin:miter;stroke-miterlimit:10;stroke-dasharray:none;stroke-opacity:1"
             d="m 24.53973,-75.5474 95.33162,27.10546" /><g
             transform="matrix(0.96297,0.27379,-0.27379,0.96297,119.87135,-48.44194)"
             id="g262"><g
               id="g264"><path
                 id="path266"
                 style="fill:#000000;fill-opacity:1;fill-rule:nonzero;stroke:#000000;stroke-width:0.3985;stroke-linecap:butt;stroke-linejoin:round;stroke-miterlimit:10;stroke-dasharray:none;stroke-opacity:1"
                 d="m 0.797,0 c -0.99625,0.19925 -1.99251,0.59775 -3.18802,1.29512 1.19551,-0.89662 1.19551,-1.69362 0,-2.59024 C -1.19551,-0.59775 -0.19925,-0.19925 0.797,0 Z" /></g></g><g
             id="g268"><g
               transform="translate(63.912,-70.912)"
               id="g270"><g
                 id="g272"><g
                   transform="translate(-154.868,-63.803)"
                   id="g274"><text
                     id="text278"
                     style="font-variant:normal;font-weight:normal;font-size:7.97009993px;font-family:CMSS8;-inkscape-font-specification:CMSS8;writing-mode:lr-tb;fill:#000000;fill-opacity:1;fill-rule:nonzero;stroke:none"
                     transform="matrix(1,0,0,-1,154.868,63.803)"><tspan
                       id="tspan276"
                       y="0"
                       x="0 4.7047501 7.7628775 11.591714 14.484063">Start</tspan></text>
<g
                     transform="translate(154.868,63.803)"
                     id="g280" /></g></g><g
                 transform="translate(-63.912,70.912)"
                 id="g282" /></g></g><path
             id="path284"
             style="fill:none;stroke:#000000;stroke-width:0.3985;stroke-linecap:butt;stroke-linejoin:miter;stroke-miterlimit:10;stroke-dasharray:none;stroke-opacity:1"
             d="M 148.77371,-48.16919 V -75.51974" /><g
             transform="rotate(-90,36.626985,-112.14672)"
             id="g286"><g
               id="g288"><path
                 id="path290"
                 style="fill:#000000;fill-opacity:1;fill-rule:nonzero;stroke:#000000;stroke-width:0.3985;stroke-linecap:butt;stroke-linejoin:round;stroke-miterlimit:10;stroke-dasharray:none;stroke-opacity:1"
                 d="m 0.797,0 c -0.99625,0.19925 -1.99251,0.59775 -3.18802,1.29512 1.19551,-0.89662 1.19551,-1.69362 0,-2.59024 C -1.19551,-0.59775 -0.19925,-0.19925 0.797,0 Z" /></g></g><path
             id="path292"
             style="fill:none;stroke:#000000;stroke-width:0.3985;stroke-linecap:butt;stroke-linejoin:miter;stroke-miterlimit:10;stroke-dasharray:none;stroke-opacity:1"
             d="m 148.77371,-90.47421 v -27.35056" /><g
             transform="rotate(-90,15.47447,-133.29924)"
             id="g294"><g
               id="g296"><path
                 id="path298"
                 style="fill:#000000;fill-opacity:1;fill-rule:nonzero;stroke:#000000;stroke-width:0.3985;stroke-linecap:butt;stroke-linejoin:round;stroke-miterlimit:10;stroke-dasharray:none;stroke-opacity:1"
                 d="m 0.797,0 c -0.99625,0.19925 -1.99251,0.59775 -3.18802,1.29512 1.19551,-0.89662 1.19551,-1.69362 0,-2.59024 C -1.19551,-0.59775 -0.19925,-0.19925 0.797,0 Z" /></g></g><g
             id="g300"><g
               transform="translate(152.292,-106.639)"
               id="g302"><g
                 id="g304"><g
                   transform="translate(-243.248,-28.076)"
                   id="g306"><text
                     id="text310"
                     style="font-variant:normal;font-weight:normal;font-size:7.97009993px;font-family:CMSS8;-inkscape-font-specification:CMSS8;writing-mode:lr-tb;fill:#000000;fill-opacity:1;fill-rule:nonzero;stroke:none"
                     transform="matrix(1,0,0,-1,243.248,28.076)"><tspan
                       id="tspan308"
                       y="0"
                       x="0 4.7047501 7.7628775 11.997392">Stop</tspan></text>
<g
                     transform="translate(243.248,28.076)"
                     id="g312" /></g></g><g
                 transform="translate(-152.292,106.639)"
                 id="g314" /></g></g><path
             id="path316"
             style="fill:none;stroke:#000000;stroke-width:0.3985;stroke-linecap:butt;stroke-linejoin:miter;stroke-miterlimit:10;stroke-dasharray:none;stroke-opacity:1"
             d="M 122.04816,-118.82103 24.41301,-89.7901" /><g
             transform="matrix(-0.96043,0.28557,-0.28557,-0.96043,24.41301,-89.7901)"
             id="g318"><g
               id="g320"><path
                 id="path322"
                 style="fill:#000000;fill-opacity:1;fill-rule:nonzero;stroke:#000000;stroke-width:0.3985;stroke-linecap:butt;stroke-linejoin:round;stroke-miterlimit:10;stroke-dasharray:none;stroke-opacity:1"
                 d="m 0.797,0 c -0.99625,0.19925 -1.99251,0.59775 -3.18802,1.29512 1.19551,-0.89662 1.19551,-1.69362 0,-2.59024 C -1.19551,-0.59775 -0.19925,-0.19925 0.797,0 Z" /></g></g></g></g></g></g></svg>