<?xml version="1.0" encoding="UTF-8" standalone="no"?>
<svg
   xmlns:dc="http://purl.org/dc/elements/1.1/"
   xmlns:cc="http://creativecommons.org/ns#"
   xmlns:rdf="http://www.w3.org/1999/02/22-rdf-syntax-ns#"
   xmlns:svg="http://www.w3.org/2000/svg"
   xmlns="http://www.w3.org/2000/svg"
   viewBox="0 0 492.40134 92.122665"
   height="92.122665"
   width="492.40134"
   xml:space="preserve"
   id="svg2"
   version="1.1"><metadata
     id="metadata8"><rdf:RDF><cc:Work
         rdf:about=""><dc:format>image/svg+xml</dc:format><dc:type
           rdf:resource="http://purl.org/dc/dcmitype/StillImage" /><dc:title></dc:title></cc:Work></rdf:RDF></metadata><defs
     id="defs6" /><g
     transform="matrix(1.3333333,0,0,-1.3333333,0,92.122667)"
     id="g10"><g
       transform="translate(85.239,62.113)"
       id="g12"><g
         id="g14"><g
           id="g16" /><g
           id="g18"><g
             id="g20"><path
               id="path22"
               style="fill:none;stroke:#000000;stroke-width:0.3985;stroke-linecap:butt;stroke-linejoin:miter;stroke-miterlimit:10;stroke-dasharray:none;stroke-opacity:1"
               d="M -85.04045,-6.77985 H 85.04047 V 6.77986 H -85.04045 Z" /><g
               transform="translate(-26.222,-3.459)"
               id="g24"><g
                 id="g26"><g
                   transform="translate(-59.017,-58.654)"
                   id="g28"><text
                     id="text32"
                     style="font-variant:normal;font-weight:normal;font-size:9.96259975px;font-family:CMSSBX10;-inkscape-font-specification:CMSSBX10;writing-mode:lr-tb;fill:#000000;fill-opacity:1;fill-rule:nonzero;stroke:none"
                     transform="matrix(1,0,0,-1,59.017,58.654)"><tspan
                       id="tspan30"
                       y="0"
                       x="0 8.6345854 14.422856 20.012871 25.602886 28.149326 33.241211 36.285782 41.765213 47.355228">module.one</tspan></text>
<g
                     transform="translate(59.017,58.654)"
                     id="g34" /></g></g><g
                 transform="translate(26.222,3.459)"
                 id="g36" /></g></g><g
             id="g38"><path
               id="path40"
               style="fill:none;stroke:#000000;stroke-width:0.3985;stroke-linecap:butt;stroke-linejoin:miter;stroke-miterlimit:10;stroke-dasharray:none;stroke-opacity:1"
               d="M -85.04045,-34.34712 H 85.04047 V -6.89488 H -85.04045 Z" /><g
               transform="translate(-40.529,-29.089)"
               id="g42"><g
                 id="g44"><g
                   transform="translate(-44.71,-33.024)"
                   id="g46"><text
                     id="text52"
                     style="font-variant:normal;font-weight:normal;font-size:9.96259975px;font-family:CMSS10;-inkscape-font-specification:CMSS10;writing-mode:lr-tb;fill:#000000;fill-opacity:1;fill-rule:nonzero;stroke:none"
                     transform="matrix(1,0,0,-1,44.71,44.979)"><tspan
                       id="tspan48"
                       y="0"
                       x="0 3.8186646 8.9663401 11.346405 13.72647 17.323965 22.47164 27.259666 31.687046 36.278809 41.066833 46.048134 50.475513 53.243122 59.608227 61.988293 66.776321 70.594986 74.413651">splitpackage.ClassA</tspan><tspan
                       id="tspan50"
                       y="11.955"
                       x="0 3.8186646 8.9663401 11.346405 13.72647 17.323965 22.47164 27.259666 31.687046 36.278809 41.066833 46.048134 50.475513 53.243122 59.608227 61.988293 66.776321 70.594986 74.413651">splitpackage.ClassB</tspan></text>
<g
                     transform="translate(44.71,33.024)"
                     id="g54" /></g></g><g
                 transform="translate(40.529,29.089)"
                 id="g56" /></g></g><g
             id="g58"><path
               id="path60"
               style="fill:none;stroke:#000000;stroke-width:0.3985;stroke-linecap:butt;stroke-linejoin:miter;stroke-miterlimit:10;stroke-dasharray:none;stroke-opacity:1"
               d="M -85.04045,-61.91441 H 85.04047 v 27.45224 H -85.04045 Z" /><g
               transform="translate(-73.378,-56.656)"
               id="g62"><g
                 id="g64"><g
                   transform="translate(-11.861,-5.457)"
                   id="g66"><text
                     id="text72"
                     style="font-variant:normal;font-weight:normal;font-size:9.96259975px;font-family:CMSS10;-inkscape-font-specification:CMSS10;writing-mode:lr-tb;fill:#000000;fill-opacity:1;fill-rule:nonzero;stroke:none"
                     transform="matrix(1,0,0,-1,11.861,17.412)"><tspan
                       id="tspan68"
                       y="0"
                       x="0 3.8186646 8.9663401 11.346405 13.72647 17.323965 22.47164 27.259666 31.687046 36.278809 41.066833 46.048134 50.475513 53.243122 55.623188 60.770863 64.368355 68.795738 72.199959 77.347633 82.135658 84.515724 87.283333 90.050941 95.198624 98.796112 103.2235 106.62772 111.77539 116.56342 118.94348 125.30859 127.68865 132.47668 136.29535 140.11401">splitpackage.internal.InternalClassA</tspan><tspan
                       id="tspan70"
                       y="11.955"
                       x="0 3.8186646 8.9663401 11.346405 13.72647 17.323965 22.47164 27.259666 31.687046 36.278809 41.066833 46.048134 50.475513 53.243122 55.623188 60.770863 64.368355 68.795738 72.199959 77.347633 82.135658 84.515724 87.283333 90.050941 95.198624 98.796112 103.2235 106.62772 111.77539 116.56342 118.94348 125.30859 127.68865 132.47668 136.29535 140.11401">splitpackage.internal.InternalClassB</tspan></text>
<g
                     transform="translate(11.861,5.457)"
                     id="g74" /></g></g><g
                 transform="translate(73.378,56.656)"
                 id="g76" /></g></g><g
             id="g78"><path
               id="path80"
               style="fill:none;stroke:#000000;stroke-width:0.3985;stroke-linecap:butt;stroke-linejoin:miter;stroke-miterlimit:10;stroke-dasharray:none;stroke-opacity:1"
               d="M 113.78577,-6.77985 H 283.86669 V 6.77986 H 113.78577 Z" /><g
               transform="translate(172.526,-3.459)"
               id="g82"><g
                 id="g84"><g
                   transform="translate(-257.765,-58.654)"
                   id="g86"><text
                     id="text90"
                     style="font-variant:normal;font-weight:normal;font-size:9.96259975px;font-family:CMSSBX10;-inkscape-font-specification:CMSSBX10;writing-mode:lr-tb;fill:#000000;fill-opacity:1;fill-rule:nonzero;stroke:none"
                     transform="matrix(1,0,0,-1,257.765,58.654)"><tspan
                       id="tspan88"
                       y="0"
                       x="0 8.6345854 14.422856 20.012871 25.602886 28.149326 33.241211 36.275818 40.003822 47.111141">module.two</tspan></text>
<g
                     transform="translate(257.765,58.654)"
                     id="g92" /></g></g><g
                 transform="translate(-172.526,3.459)"
                 id="g94" /></g></g><g
             id="g96"><path
               id="path98"
               style="fill:none;stroke:#000000;stroke-width:0.3985;stroke-linecap:butt;stroke-linejoin:miter;stroke-miterlimit:10;stroke-dasharray:none;stroke-opacity:1"
               d="M 113.78577,-34.34712 H 283.86669 V -6.89488 H 113.78577 Z" /><g
               transform="translate(158.018,-29.089)"
               id="g100"><g
                 id="g102"><g
                   transform="translate(-243.257,-33.024)"
                   id="g104"><text
                     id="text110"
                     style="font-variant:normal;font-weight:normal;font-size:9.96259975px;font-family:CMSS10;-inkscape-font-specification:CMSS10;writing-mode:lr-tb;fill:#000000;fill-opacity:1;fill-rule:nonzero;stroke:none"
                     transform="matrix(1,0,0,-1,243.257,44.979)"><tspan
                       id="tspan106"
                       y="0"
                       x="0 3.8186646 8.9663401 11.346405 13.72647 17.323965 22.47164 27.259666 31.687046 36.278809 41.066833 46.048134 50.475513 53.243122 59.608227 61.988293 66.776321 70.594986 74.413651">splitpackage.ClassC</tspan><tspan
                       id="tspan108"
                       y="11.955"
                       x="0 3.8186646 8.9663401 11.346405 13.72647 17.323965 22.47164 27.259666 31.687046 36.278809 41.066833 46.048134 50.475513 53.243122 59.608227 61.988293 66.776321 70.594986 74.413651">splitpackage.ClassD</tspan></text>
<g
                     transform="translate(243.257,33.024)"
                     id="g112" /></g></g><g
                 transform="translate(-158.018,29.089)"
                 id="g114" /></g></g><g
             id="g116"><path
               id="path118"
               style="fill:none;stroke:#000000;stroke-width:0.3985;stroke-linecap:butt;stroke-linejoin:miter;stroke-miterlimit:10;stroke-dasharray:none;stroke-opacity:1"
               d="m 113.78577,-61.91441 h 170.08092 v 27.45224 H 113.78577 Z" /><g
               transform="translate(125.169,-56.656)"
               id="g120"><g
                 id="g122"><g
                   transform="translate(-210.408,-5.457)"
                   id="g124"><text
                     id="text130"
                     style="font-variant:normal;font-weight:normal;font-size:9.96259975px;font-family:CMSS10;-inkscape-font-specification:CMSS10;writing-mode:lr-tb;fill:#000000;fill-opacity:1;fill-rule:nonzero;stroke:none"
                     transform="matrix(1,0,0,-1,210.408,17.412)"><tspan
                       id="tspan126"
                       y="0"
                       x="0 3.8186646 8.9663401 11.346405 13.72647 17.323965 22.47164 27.259666 31.687046 36.278809 41.066833 46.048134 50.475513 53.243122 55.623188 60.770863 64.368355 68.795738 72.199959 77.347633 82.135658 84.515724 87.283333 90.050941 95.198624 98.796112 103.2235 106.62772 111.77539 116.56342 118.94348 125.30859 127.68865 132.47668 136.29535 140.11401">splitpackage.internal.InternalClassC</tspan><tspan
                       id="tspan128"
                       y="11.955"
                       x="0 3.8186646 8.9663401 11.346405 13.72647 17.323965 22.47164 27.259666 31.687046 36.278809 41.066833 46.048134 50.475513 53.243122 55.623188 60.770863 64.368355 68.795738 72.199959 77.347633 82.135658 84.515724 87.283333 90.050941 95.198624 98.796112 103.2235 106.62772 111.77539 116.56342 118.94348 125.30859 127.68865 132.47668 136.29535 140.11401">splitpackage.internal.InternalClassD</tspan></text>
<g
                     transform="translate(210.408,5.457)"
                     id="g132" /></g></g><g
                 transform="translate(-125.169,56.656)"
                 id="g134" /></g></g></g></g></g></g></svg>